<?xml version="1.0" encoding="UTF-8"?><svg id="Layer_2" xmlns="http://www.w3.org/2000/svg" viewBox="0 0 238.23 110.21"><defs><style>.cls-1{fill:#214676;}.cls-2{fill:#767878;}.cls-3{fill:#909293;fill-rule:evenodd;}</style></defs><g id="Layer_1-2"><path class="cls-3" d="M5.97,25.61L55.11,6.46l40.68,12.05L55.25,0,0,21.53v9.06c1.77,37.26,23.39,62.39,55.25,79.62,7.01-3.79,20.41-12.64,26.61-17.92-6.33,3.52-19.45,9.6-26.31,10.82l-.6.11-.53-.3c-11.28-6.5-21.83-14.51-30.18-24.57l-.41-.5C12.6,64.1,6.85,48.22,5.97,30.49v-.04s0-4.84,0-4.84h0Z"/><path class="cls-1" d="M62.15,58.83c.15,0,.29.03.41.09.12.06.21.18.28.37l5.23,13.16c.14.4.13.72-.01.99-.15.27-.36.42-.6.47-.33.04-.56.12-.68.23-.12.12-.18.27-.17.46.01.22.19.36.54.41.36.06.85.1,1.46.13,1.91.05,3.71.09,5.37.1,1.67.03,3.15.04,4.46.04,1.31.01,2.36.01,3.17.01.29,0,.56,0,.8,0,.08,0,.17,0,.26,0,.71,0,1.45-.01,2.26-.05.81-.03,1.62-.06,2.44-.1.82,0,1.56-.01,2.24-.04.67-.03,1.21-.04,1.6-.04,1,0,2.14.01,3.44.05,1.3.03,2.76.06,4.41.1,1.65.08,3.5.13,5.56.17,2.06.04,4.36.06,6.9.06.83.01,1.49-.01,1.96-.06.47-.05.83-.19,1.08-.44.24-.24.44-.64.58-1.19.1-.35.21-.83.31-1.47.1-.64.21-1.33.29-2.08.1-.76.17-1.46.23-2.12.06-.67.09-1.18.09-1.56.01-.37-.03-.71-.1-1.03-.08-.32-.26-.49-.51-.51-.22,0-.38.08-.5.24-.1.15-.19.41-.27.76-.22,1.33-.55,2.38-1,3.14-.45.77-1.09,1.33-1.92,1.71-.6.26-1.28.44-2.05.56-.76.12-1.53.19-2.28.23-.77.04-1.45.05-2.05.05-2.3.01-4.09-.13-5.41-.42-1.32-.29-2.27-.85-2.85-1.64-.56-.8-.86-1.92-.9-3.4-.01-.5-.03-1.17-.04-2.01,0-.85,0-1.74.01-2.72,0-.97.01-1.9.01-2.78.01-.87.01-1.6.01-2.18v-5.23c0-.19.03-.36.08-.49.05-.13.15-.21.31-.21.36,0,.9,0,1.64.01.73.01,1.55.03,2.47.05.91.01,1.82.04,2.72.06.9.03,1.69.05,2.37.09.68.03,1.15.05,1.41.09.85.08,1.51.23,2.03.47.5.23.9.53,1.17.87.27.36.46.76.58,1.19.08.42.13.85.14,1.24.03.41.06.79.09,1.14,0,.15.04.28.14.38.09.1.24.15.47.15.21-.01.36-.09.45-.26.1-.17.17-.36.21-.59.03-.22.04-.42.04-.62,0-.13.01-.36.03-.69.01-.35.04-.74.08-1.18.03-.45.05-.9.09-1.35.04-.44.08-.83.12-1.17.13-1.09.23-1.96.31-2.62.08-.67.14-1.15.18-1.49.04-.32.05-.55.05-.67,0-.19-.05-.36-.15-.49-.1-.13-.23-.21-.38-.21-.14,0-.3.09-.45.24-.15.17-.37.36-.63.6-.31.33-.72.56-1.24.71-.51.13-1.18.23-1.99.3-.32.03-.88.05-1.68.08-.78.01-1.69.04-2.71.04-1.03.01-2.05.03-3.06.03-1.03.01-1.94.01-2.72.01h-1.68c-.19,0-.31-.08-.37-.21-.06-.13-.09-.29-.09-.49v-16.16c0-.19.04-.35.12-.45.08-.12.19-.17.35-.17.3,0,.81,0,1.53.01.72.01,1.55.03,2.47.05.94.01,1.86.04,2.78.06.92.03,1.73.05,2.42.09.69.03,1.17.05,1.41.09,1.12.1,1.96.27,2.54.5.59.22,1.01.5,1.28.82.27.32.47.68.64,1.06.13.26.23.55.3.86.06.31.1.6.13.87.03.27.04.49.04.65,0,.27.03.47.1.63.06.14.22.22.44.22.18-.01.32-.08.42-.22.1-.13.18-.28.23-.45.05-.17.09-.31.12-.41.04-.21.08-.5.12-.9.04-.4.08-.83.1-1.28.04-.46.06-.88.09-1.27.04-.38.06-.68.08-.86.05-.99.13-1.77.2-2.33.09-.56.17-.99.23-1.26.06-.28.1-.5.1-.64,0-.17-.03-.31-.09-.42-.06-.13-.18-.19-.37-.19-.15.01-.32.05-.51.13-.18.08-.37.13-.56.18-.28.04-.67.1-1.17.19-.5.08-1.05.14-1.68.19-.23.01-.79.03-1.67.03s-1.95.01-3.22.01-2.62-.01-4.03-.01-2.78,0-4.1-.01c-1.31,0-2.45,0-3.42-.01h-2.03c-.65,0-1.53-.01-2.6-.04-1.08-.03-2.23-.05-3.49-.08-1.26-.03-2.47-.04-3.68-.04-.5,0-.88.04-1.14.13-.27.1-.4.26-.4.49s.12.4.32.51c.21.12.49.18.83.18.51,0,1.03.01,1.53.05.49.04.88.1,1.17.18.72.19,1.27.42,1.68.69.41.27.71.63.9,1.08.19.44.31,1.04.35,1.77.01.4.03.83.04,1.28.01.45.01,1,.03,1.63,0,.64.01,1.42.01,2.37v20.11c0,2.01,0,3.9-.01,5.65-.01,1.77-.04,3.36-.08,4.76-.04,1.41-.12,2.58-.22,3.51-.1.96-.28,1.74-.56,2.33-.28.59-.76.97-1.44,1.13-.31.08-.65.14-1.05.18-.21.02-.44.03-.68.04h0c-.21,0-.43-.02-.65-.04-.41-.04-.86-.1-1.36-.18-.31-.06-.65-.19-1.05-.4-.4-.21-.83-.54-1.31-1.03-.49-.47-1.01-1.17-1.58-2.06-.56-.91-1.18-2.09-1.83-3.55-.63-1.44-1.36-3.15-2.23-5.15-.86-2-1.78-4.18-2.78-6.53-1-2.33-2.03-4.73-3.06-7.18-1.05-2.45-2.06-4.83-3.05-7.15-.99-2.32-1.9-4.46-2.73-6.42-.83-1.96-1.55-3.62-2.13-4.99-.59-1.36-1-2.31-1.24-2.85-.22-.49-.42-.88-.6-1.19-.18-.31-.37-.53-.59-.67-.21-.15-.47-.22-.81-.22-.33-.01-.67.19-.97.62-.31.41-.65,1.08-1.03,2l-17.69,41.16c-.45,1.1-.91,2.06-1.38,2.86-.47.81-1.05,1.46-1.72,1.95-.67.49-1.5.81-2.51.96-.31,0-.64.01-1,.04-.35.03-.68.04-1,.04-.27,0-.46.08-.59.21-.12.13-.18.3-.18.49,0,.27.1.45.29.55.21.1.51.14.94.14,1.19,0,2.35-.03,3.45-.06,1.12-.04,2.05-.06,2.85-.1.78-.04,1.31-.06,1.55-.06.73,0,1.54.03,2.42.06.87.04,1.76.06,2.65.1.88.04,1.71.06,2.46.06.35,0,.62-.04.8-.14.19-.1.28-.28.28-.55.01-.19-.05-.36-.18-.49-.14-.13-.41-.21-.82-.21h-1c-1.03,0-1.73-.17-2.13-.49-.4-.32-.58-.78-.56-1.36,0-.4.08-.96.24-1.68.15-.72.41-1.5.76-2.32l3.62-8.77c.06-.19.14-.31.22-.37.08-.06.22-.09.4-.09h15.93ZM220.15,76.14c1.22.01,2.49-.05,3.82-.18,1.33-.14,2.64-.4,3.92-.8,1.28-.38,2.47-.96,3.56-1.72,1.64-1.15,2.95-2.36,3.95-3.63.99-1.27,1.72-2.63,2.15-4.05.45-1.42.68-2.94.67-4.55.03-1.97-.33-3.85-1.05-5.64-.72-1.81-1.94-3.54-3.64-5.23-1.72-1.68-4.05-3.33-7-4.98l-2.77-1.54c-1.51-.85-2.73-1.63-3.68-2.36-.95-.74-1.67-1.45-2.18-2.13-.5-.68-.85-1.35-1.03-2.03-.19-.68-.28-1.37-.27-2.1.01-1.12.27-2.12.76-2.97.5-.87,1.18-1.6,2.04-2.21.86-.59,1.85-1.05,2.95-1.36,1.1-.31,2.27-.46,3.49-.46,1.46.01,2.68.19,3.68.53,1,.33,1.81.73,2.44,1.21.63.47,1.1.92,1.42,1.35.49.58.86,1.15,1.12,1.73.26.58.42,1.1.53,1.56.09.46.14.8.13,1.01,0,.77.23,1.15.69,1.15.27,0,.47-.18.63-.53.14-.35.22-.86.22-1.55,0-1.71.03-3.09.06-4.14.04-1.05.06-1.87.1-2.44.04-.58.06-1,.06-1.27,0-.23-.08-.41-.23-.54-.15-.13-.38-.23-.69-.31-.9-.24-2.18-.49-3.82-.72-1.65-.22-3.59-.35-5.8-.36-2.36,0-4.56.32-6.63.92-2.05.62-3.86,1.5-5.42,2.65-1.56,1.15-2.8,2.53-3.68,4.14-.88,1.62-1.33,3.42-1.35,5.44-.01,1.91.31,3.71.97,5.37.67,1.67,1.78,3.27,3.33,4.82,1.55,1.55,3.65,3.1,6.31,4.65l3.92,2.31c1.49.88,2.68,1.73,3.58,2.54.9.81,1.58,1.59,2.03,2.33.45.76.74,1.49.88,2.22.15.72.22,1.44.21,2.14,0,1.55-.38,2.96-1.13,4.21-.76,1.24-1.82,2.24-3.22,2.97-1.41.73-3.08,1.12-5.04,1.13-1.06,0-2.15-.1-3.26-.33-1.12-.22-2.17-.58-3.17-1.08-1-.5-1.88-1.17-2.64-2-.76-.82-1.33-1.85-1.71-3.05-.19-.59-.35-1.19-.45-1.81-.12-.62-.17-1.14-.17-1.58.01-.24-.03-.49-.12-.71-.09-.23-.28-.36-.58-.37-.27.01-.47.17-.63.47-.14.31-.22.71-.22,1.22-.03.28-.05.72-.09,1.32-.04.59-.09,1.29-.13,2.1-.05.81-.09,1.67-.12,2.56-.04.91-.05,1.81-.05,2.71,0,.47.03.86.1,1.13.06.27.19.49.38.64.19.17.46.32.82.46.99.44,2.08.77,3.28,1.03,1.21.24,2.46.41,3.77.51,1.32.1,2.63.15,3.95.15h0ZM184.43,56.29c0,2.12,0,4.08-.01,5.9-.01,1.82-.04,3.44-.08,4.85-.04,1.42-.12,2.58-.22,3.49-.1.95-.28,1.68-.56,2.18-.28.5-.76.83-1.44.97-.31.08-.65.14-1.05.18-.38.04-.83.05-1.33.05-.41.01-.71.09-.86.23-.15.14-.23.3-.22.46,0,.23.12.4.33.51.23.12.55.18.97.18.69,0,1.45-.01,2.31-.04.85-.03,1.69-.05,2.55-.08.85-.03,1.63-.05,2.33-.08.71-.03,1.26-.04,1.65-.04.63,0,1.53.03,2.67.06,1.14.04,2.42.06,3.85.1,1.44.04,2.91.06,4.41.06.4,0,.71-.06.94-.18.24-.12.36-.28.37-.51,0-.17-.08-.32-.26-.46-.17-.14-.44-.22-.82-.23-.35,0-.72-.01-1.14-.03-.41-.01-.82-.04-1.23-.08-.41-.04-.77-.08-1.09-.13-.65-.1-1.17-.28-1.54-.54-.36-.26-.63-.6-.8-1.03-.17-.42-.29-.92-.36-1.51-.1-.94-.17-2.12-.22-3.54-.04-1.42-.06-3.05-.08-4.87-.01-1.82-.01-3.78-.01-5.9v-16.59c0-1.4,0-2.56.01-3.51,0-.95.01-1.74.03-2.37,0-.63.03-1.18.04-1.63.03-.45.05-.88.08-1.28.05-1.14.27-1.97.63-2.53.37-.54,1-.87,1.91-1.01.37-.08.72-.14,1.03-.18.31-.04.64-.05.97-.05s.62-.05.79-.15c.19-.12.28-.32.28-.62,0-.19-.13-.33-.37-.41-.24-.09-.59-.13-1.01-.13-.67,0-1.41.01-2.22.03-.82.01-1.64.03-2.47.05-.83.03-1.59.04-2.3.05-.71.01-1.27.03-1.71.03-.49,0-1.12-.01-1.87-.03-.76-.01-1.56-.03-2.44-.05-.87-.03-1.72-.04-2.55-.05-.83-.01-1.56-.03-2.22-.03-.54,0-.94.04-1.21.13-.27.08-.41.22-.41.41,0,.3.09.5.28.62.18.1.45.15.8.15.42,0,.85.01,1.26.06.42.05.82.13,1.21.24.49.14.9.35,1.22.6.32.26.58.62.74,1.08.18.45.29,1.04.35,1.78.01.4.03.83.04,1.28.01.45.01,1,.03,1.63,0,.63.01,1.42.01,2.37v20.11h0ZM168.99,63.68c0-1.62,0-3.08.01-4.39,0-1.31.03-2.46.06-3.46.03-1.14.24-1.97.64-2.53.41-.54,1.06-.87,1.97-1.01.38-.08.72-.14,1.01-.18.29-.04.56-.05.83-.05.24,0,.44-.08.6-.21.15-.13.24-.29.24-.49,0-.26-.12-.44-.35-.51-.23-.08-.58-.12-1.04-.1-.76,0-1.62.01-2.56.04-.95.03-1.9.05-2.85.08-.94.03-1.77.04-2.51.04-.51,0-1.17-.01-1.96-.03-.81-.01-1.69-.03-2.65-.05-.96-.03-1.94-.04-2.94-.05-.99-.01-1.94-.03-2.83-.03-.46-.01-.82.03-1.08.1-.26.08-.38.26-.38.51.01.19.12.36.31.49.21.13.46.21.77.21.49,0,.96.01,1.45.05.5.04.88.1,1.17.18.72.19,1.28.42,1.71.69.41.27.72.63.91,1.08.18.45.29,1.04.31,1.77.04.99.06,2.12.06,3.39.01,1.26.01,2.69.01,4.31v6c.01.58-.08,1.04-.28,1.41-.19.37-.53.67-1.03.9-.8.33-1.56.54-2.32.6-.76.08-1.58.1-2.45.09-3.63-.01-6.89-.63-9.78-1.82-2.89-1.19-5.36-2.89-7.41-5.05-2.05-2.18-3.62-4.74-4.71-7.71-1.09-2.95-1.63-6.19-1.64-9.73.01-2.65.27-4.99.78-7,.51-2.01,1.23-3.74,2.15-5.21.94-1.46,2.03-2.71,3.3-3.72,1.18-.94,2.35-1.67,3.5-2.19,1.17-.53,2.3-.91,3.41-1.14,1.12-.24,2.19-.38,3.23-.45,1.03-.05,2.01-.08,2.94-.06,1.91.01,3.65.17,5.23.49,1.58.32,2.99.73,4.22,1.23,1.24.5,2.3,1.05,3.18,1.63.87.56,1.56,1.13,2.06,1.65.59.62,1.04,1.24,1.35,1.88.32.64.55,1.27.69,1.86.14.6.23,1.14.27,1.64.04.27.1.47.21.63.1.14.26.22.49.22.27,0,.5-.12.67-.36.17-.23.26-.6.26-1.1,0-2.05.03-3.73.08-5.05.04-1.32.09-2.36.15-3.13.06-.77.12-1.36.15-1.74.05-.38.08-.67.08-.85.01-.23-.05-.41-.17-.53-.13-.13-.38-.21-.76-.24-.55-.03-1.15-.09-1.81-.17-.65-.08-1.3-.17-1.92-.26-.63-.1-1.18-.19-1.65-.27-.36-.08-.96-.18-1.79-.29-.85-.13-1.83-.24-2.96-.36-1.14-.12-2.33-.22-3.58-.29-1.26-.09-2.47-.13-3.67-.13-1.9-.01-3.83.06-5.82.26-1.99.19-4.01.59-6.08,1.21-2.06.6-4.18,1.53-6.33,2.77-1.58.9-3.06,2.04-4.47,3.4-1.42,1.36-2.68,2.94-3.78,4.73-1.1,1.8-1.97,3.8-2.62,6.01-.64,2.21-.96,4.63-.97,7.24.01,3.62.58,6.81,1.67,9.6,1.09,2.8,2.62,5.21,4.56,7.22,1.96,2.03,4.26,3.69,6.89,4.99,2.62,1.3,5.47,2.26,8.55,2.88,3.09.62,6.31.92,9.64.92,1.33,0,2.73-.05,4.19-.14,1.45-.1,2.91-.26,4.37-.49,1.46-.22,2.87-.53,4.22-.9,1.36-.37,2.62-.85,3.76-1.4.28-.14.47-.28.6-.41.12-.13.19-.33.22-.62.03-.28.03-.71.03-1.28v-7.23h0ZM47.61,55.22c-.12,0-.21-.04-.26-.12-.05-.08-.05-.19.03-.35l6.54-16.54c.04-.13.08-.26.14-.4.05-.13.13-.21.24-.22.08.01.14.09.18.22.05.14.09.27.13.4l6.39,16.62c.04.12.04.21-.01.28-.04.06-.14.1-.29.1h-13.08Z"/><path class="cls-2" d="M45.47,86.16v-2.41h-2.49v.61h1.84v1.5c-.21.17-.46.31-.77.43-.3.12-.63.18-.97.18-.37,0-.7-.06-.99-.19-.29-.13-.54-.3-.75-.53-.21-.22-.37-.49-.48-.8-.11-.31-.17-.64-.17-1,0-.34.06-.66.17-.96.11-.3.27-.56.47-.79.2-.22.44-.4.72-.53.28-.13.59-.2.92-.2.21,0,.41.02.58.05.18.03.34.08.48.14.15.06.28.13.41.22.13.08.25.18.36.28l.44-.52c-.15-.13-.3-.24-.46-.34-.16-.1-.33-.19-.51-.25-.18-.07-.38-.12-.59-.16-.21-.03-.44-.05-.69-.05-.45,0-.87.08-1.24.25-.37.17-.69.4-.95.69-.26.29-.47.62-.62,1-.15.38-.22.78-.22,1.19s.07.84.21,1.22c.14.38.34.71.61.99.27.28.59.5.97.66.38.16.8.24,1.28.24.51,0,.97-.09,1.38-.27.41-.18.76-.4,1.04-.65h0ZM54.14,80.95h-4.36v6.03h4.4v-.62h-3.72v-2.11h3.29v-.62h-3.29v-2.06h3.68v-.62h0ZM62.76,85.78l-3.8-4.84h-.64v6.03h.66v-4.95l3.9,4.95h.54v-6.03h-.66v4.84h0ZM72.26,80.95h-4.36v6.03h4.4v-.62h-3.72v-2.11h3.29v-.62h-3.29v-2.06h3.68v-.62h0ZM81.44,86.98l-1.85-2.47c.24-.04.45-.11.66-.21.2-.1.37-.22.52-.37.15-.15.26-.32.34-.52.08-.2.12-.42.12-.68,0-.27-.05-.52-.16-.74-.1-.22-.25-.41-.44-.57-.19-.16-.42-.28-.69-.37-.27-.09-.57-.13-.9-.13h-2.59v6.03h.68v-2.34h1.72l1.75,2.34h.84ZM80.53,82.77c0,.2-.04.37-.12.53-.08.16-.19.29-.32.39-.14.11-.3.19-.49.25-.19.06-.4.09-.62.09h-1.85v-2.45h1.86c.49,0,.87.1,1.14.31.27.21.41.5.41.88h0ZM88.32,80.9h-.64l-2.75,6.08h.7l.72-1.59h3.28l.71,1.59h.73l-2.75-6.08h0ZM89.36,84.77h-2.75l1.38-3.08,1.37,3.08h0ZM95.03,86.98h4.08v-.63h-3.4v-5.4h-.68v6.03h0ZM105.78,80.95v6.03h.68v-6.03h-.68ZM115.44,85.78l-3.8-4.84h-.64v6.03h.66v-4.95l3.9,4.95h.54v-6.03h-.66v4.84h0ZM121.11,82.45c0-.14.03-.27.09-.39.06-.12.15-.22.26-.31.11-.09.25-.16.41-.21.16-.05.33-.08.53-.08.31,0,.61.05.89.15.28.1.57.27.85.5l.4-.53c-.31-.25-.63-.43-.96-.56-.33-.12-.72-.19-1.16-.19-.29,0-.55.04-.79.13-.24.08-.45.2-.63.34-.18.15-.32.32-.41.52-.1.2-.15.42-.15.66s.04.47.12.65c.08.18.2.34.37.48.17.14.38.26.63.35.26.1.56.18.9.26.32.07.58.14.78.22.2.07.36.16.48.25.11.09.2.19.24.31.05.11.07.24.07.38,0,.31-.12.56-.37.75-.24.19-.57.28-.98.28s-.79-.07-1.11-.21c-.32-.14-.64-.35-.96-.64l-.42.5c.36.33.74.57,1.14.73.4.16.84.24,1.32.24.3,0,.57-.04.83-.12.25-.08.47-.2.65-.34.18-.15.32-.33.43-.54.1-.21.16-.45.16-.71,0-.47-.16-.83-.48-1.09-.32-.26-.81-.47-1.49-.62-.33-.07-.61-.14-.82-.22-.21-.08-.38-.16-.5-.26-.12-.09-.2-.2-.25-.31-.05-.11-.07-.24-.07-.39h0ZM133.8,80.95h-.68v3.51c0,.66-.16,1.16-.49,1.49-.33.33-.77.5-1.33.5s-1.03-.18-1.36-.53-.49-.85-.49-1.51v-3.47h-.68v3.51c0,.43.06.8.18,1.13.12.33.29.6.51.82.22.22.49.39.79.5.31.11.65.17,1.02.17s.72-.06,1.03-.17c.31-.11.57-.28.79-.5.22-.22.39-.5.51-.84.12-.33.18-.72.18-1.16v-3.46h0ZM143.17,86.98l-1.85-2.47c.24-.04.45-.11.66-.21.2-.1.37-.22.52-.37.15-.15.26-.32.34-.52.08-.2.12-.42.12-.68,0-.27-.05-.52-.16-.74-.1-.22-.25-.41-.44-.57-.19-.16-.42-.28-.69-.37-.27-.09-.57-.13-.9-.13h-2.59v6.03h.68v-2.34h1.72l1.75,2.34h.84ZM142.26,82.77c0,.2-.04.37-.12.53-.08.16-.19.29-.32.39-.14.11-.3.19-.49.25-.19.06-.4.09-.62.09h-1.85v-2.45h1.86c.49,0,.87.1,1.14.31.27.21.41.5.41.88h0ZM150.05,80.9h-.64l-2.75,6.08h.7l.72-1.59h3.28l.71,1.59h.73l-2.75-6.08h0ZM151.09,84.77h-2.75l1.38-3.08,1.37,3.08h0ZM161.2,85.78l-3.8-4.84h-.64v6.03h.66v-4.95l3.9,4.95h.54v-6.03h-.66v4.84h0ZM171.51,86.02l-.45-.44c-.29.28-.58.49-.88.64-.3.15-.66.23-1.07.23-.33,0-.64-.06-.93-.19-.28-.13-.53-.31-.74-.53-.21-.22-.37-.49-.49-.79-.12-.3-.18-.63-.18-.98s.06-.68.18-.98c.12-.3.28-.56.49-.79.21-.22.46-.4.74-.53.28-.13.59-.19.93-.19.41,0,.77.08,1.06.23.3.16.57.35.83.59l.47-.5c-.15-.14-.3-.27-.47-.39-.16-.12-.34-.22-.53-.3-.19-.08-.4-.15-.62-.19-.22-.05-.47-.07-.75-.07-.44,0-.85.08-1.22.25-.37.16-.7.39-.97.67-.27.28-.48.62-.63,1-.15.38-.23.78-.23,1.22s.08.84.23,1.22c.15.38.36.71.63.99.27.28.59.5.96.66.37.16.77.24,1.21.24.28,0,.53-.03.75-.08.22-.05.43-.12.63-.22.2-.09.38-.2.55-.33.17-.13.33-.27.49-.44h0ZM179.83,80.95h-4.36v6.03h4.4v-.62h-3.72v-2.11h3.29v-.62h-3.29v-2.06h3.68v-.62h0ZM189.47,80.9h-.64l-2.75,6.08h.7l.72-1.59h3.28l.71,1.59h.73l-2.75-6.08h0ZM190.52,84.77h-2.75l1.38-3.08,1.37,3.08h0ZM201.05,86.16v-2.41h-2.49v.61h1.84v1.5c-.21.17-.46.31-.77.43-.3.12-.63.18-.97.18-.37,0-.7-.06-.99-.19-.29-.13-.54-.3-.75-.53-.21-.22-.37-.49-.48-.8-.11-.31-.17-.64-.17-1,0-.34.06-.66.17-.96.11-.3.27-.56.47-.79.2-.22.44-.4.72-.53.28-.13.59-.2.92-.2.21,0,.41.02.58.05.18.03.34.08.48.14.15.06.28.13.41.22.13.08.25.18.36.28l.44-.52c-.15-.13-.3-.24-.46-.34-.16-.1-.33-.19-.51-.25-.18-.07-.38-.12-.59-.16-.21-.03-.44-.05-.69-.05-.45,0-.87.08-1.24.25-.37.17-.69.4-.95.69-.26.29-.47.62-.62,1-.15.38-.22.78-.22,1.19s.07.84.21,1.22c.14.38.34.71.61.99.27.28.59.5.97.66.38.16.8.24,1.28.24.51,0,.97-.09,1.38-.27.41-.18.76-.4,1.04-.65h0ZM209.72,80.95h-4.36v6.03h4.4v-.62h-3.72v-2.11h3.29v-.62h-3.29v-2.06h3.68v-.62h0ZM218.34,85.78l-3.8-4.84h-.64v6.03h.66v-4.95l3.9,4.95h.54v-6.03h-.66v4.84h0ZM228.65,86.02l-.45-.44c-.29.28-.58.49-.88.64-.3.15-.66.23-1.07.23-.33,0-.64-.06-.93-.19-.28-.13-.53-.31-.74-.53-.21-.22-.37-.49-.49-.79-.12-.3-.18-.63-.18-.98s.06-.68.18-.98c.12-.3.28-.56.49-.79.21-.22.46-.4.74-.53.28-.13.59-.19.93-.19.41,0,.77.08,1.06.23.3.16.57.35.83.59l.47-.5c-.15-.14-.3-.27-.47-.39-.16-.12-.34-.22-.53-.3-.19-.08-.4-.15-.62-.19-.22-.05-.47-.07-.75-.07-.44,0-.85.08-1.22.25-.37.16-.7.39-.97.67-.27.28-.48.62-.63,1-.15.38-.23.78-.23,1.22s.08.84.23,1.22c.15.38.36.71.63.99.27.28.59.5.96.66.37.16.77.24,1.21.24.28,0,.53-.03.75-.08.22-.05.43-.12.63-.22.2-.09.38-.2.55-.33.17-.13.33-.27.49-.44h0ZM235.1,84.58l2.51-3.64h-.79l-2.05,3.02-2.03-3.02h-.83l2.51,3.65v2.39h.69v-2.4h0Z"/></g></svg>