<svg
  width="124"
  height="27"
  viewBox="0 0 124 27"
  fill="none"
  xmlns="http://www.w3.org/2000/svg"
>
  <path d="M27.5513 1.21472V25.8529H32.3572V1.21472H27.5513Z" fill="#0E1941" />
  <path d="M35.855 25.8536H40.6529V1.21472H35.855V25.8536Z" fill="#0E1941" />
  <path
    d="M51.2293 14.2174C48.6159 13.5345 48.0685 13.1516 48.1384 12.0626C48.1952 11.0755 48.9974 10.5085 50.3405 10.5085C52.0016 10.5085 54.0326 11.0937 55.7775 12.0728L56.052 12.2301L56.7137 8.1186L56.5572 8.04507C54.7657 7.22686 52.6204 6.79154 50.3405 6.79154C48.1464 6.79154 46.2807 7.46854 45.0759 8.69586C44.1223 9.67423 43.6331 10.9416 43.6579 12.348C43.7416 16.1464 45.552 17.2209 49.8396 18.3245C52.6757 19.0233 53.2523 19.4382 53.2311 20.7915C53.2151 22.0057 52.4901 22.465 50.5618 22.465C48.5446 22.465 46.2705 21.7211 44.297 20.4319L44.0109 20.2419L43.3449 24.3679L43.4875 24.4472C45.0242 25.2917 47.6492 26.1783 50.4154 26.1783C53.0979 26.1783 55.0787 25.5428 56.3046 24.3053C57.2596 23.3335 57.7284 22.0195 57.7066 20.3889C57.644 16.3102 55.5861 15.3406 51.2293 14.2174Z"
    fill="#0E1941"
  />
  <path
    d="M69.3778 21.7007L69.1289 21.7669C68.7984 21.8579 68.3812 21.9038 67.8098 21.9038C66.3859 21.9038 65.7235 21.2617 65.7235 19.8728V11.1483H69.2468L69.3123 7.13732H65.7235V1.21399H60.9977V7.13732H58.5284V11.1483H60.9977V20.5986C60.9977 24.3395 62.9507 26.1696 66.9792 26.1696C68.2786 26.1696 69.0757 26.0211 69.784 25.8667L69.9995 25.826L69.3778 21.7007Z"
    fill="#0E1941"
  />
  <path
    fill-rule="evenodd"
    clip-rule="evenodd"
    d="M122.311 24.9051L121.638 23.9435H121.42V24.8716H121.032V22.6223H121.714C122.187 22.6223 122.502 22.8567 122.502 23.2774C122.502 23.6014 122.327 23.811 122.047 23.8991L122.696 24.8178L122.311 24.9051ZM121.714 22.9717H121.42V23.6363H121.697C121.951 23.6363 122.109 23.5322 122.109 23.3044C122.109 23.086 121.969 22.9717 121.714 22.9717Z"
    fill="#0E1941"
  />
  <path
    fill-rule="evenodd"
    clip-rule="evenodd"
    d="M121.724 25.8515C120.553 25.8515 119.737 25.0362 119.737 23.8212C119.737 22.6128 120.568 21.7808 121.724 21.7808C122.898 21.7808 123.711 22.6034 123.711 23.8212C123.711 25.0296 122.879 25.8515 121.724 25.8515ZM121.724 22.0188C120.778 22.0188 120.026 22.6652 120.026 23.8212C120.026 24.9663 120.778 25.6142 121.724 25.6142C122.678 25.6142 123.431 24.9663 123.431 23.8212C123.431 22.6652 122.67 22.0188 121.724 22.0188Z"
    fill="#0E1941"
  />
  <path
    fill-rule="evenodd"
    clip-rule="evenodd"
    d="M16.5068 1.21546L1.18344 25.8507H6.39192C6.39192 25.8507 10.1707 19.717 10.3017 19.5081H19.0946L19.0983 25.8529L24.0425 25.8522V1.21546H16.5068ZM19.0866 15.1433H13.0432C13.4203 14.5442 19.0866 5.3342 19.0866 5.3342V15.1433Z"
    fill="#0E1941"
  />
  <path
    fill-rule="evenodd"
    clip-rule="evenodd"
    d="M72.5648 8.18413C74.3606 7.48021 76.6158 6.75226 79.604 6.75226C84.3889 6.75226 86.6142 8.75266 86.6142 13.0301V25.85H82.4627C82.4627 25.85 82.2181 24.3344 82.1278 23.7899C80.4557 25.4162 78.6417 26.2133 76.4557 26.2133C73.2993 26.2133 71.2632 24.1859 71.2632 21.0448C71.2632 16.7914 74.718 14.371 81.8148 13.6401V13.1568C81.8148 11.4708 80.9245 10.6876 79.0319 10.6876C77.2564 10.6876 75.4343 11.1316 73.2811 12.0838L73.0117 12.2024L72.3952 8.24965L72.5648 8.18413ZM76.0305 20.5768C76.0305 21.7393 76.7621 22.4651 77.9443 22.4651C79.3049 22.4651 80.6392 21.8478 81.8148 20.6998V16.6415C78.028 17.1496 76.0305 18.5043 76.0305 20.5768Z"
    fill="#0E1941"
  />
  <path
    d="M98.9398 21.7007L98.6945 21.7669C98.3662 21.8579 97.9418 21.9038 97.3813 21.9038C95.9523 21.9038 95.2819 21.2617 95.2819 19.8728V11.1483H98.8125L98.878 7.13732H95.2819V1.21399H90.5473V7.13732H88.0912V11.1483H90.5473V20.5986C90.5473 24.3395 92.5142 26.1696 96.5449 26.1696C97.8406 26.1696 98.6742 26.0145 99.3482 25.8667L99.5593 25.826L98.9398 21.7007Z"
    fill="#0E1941"
  />
  <path
    fill-rule="evenodd"
    clip-rule="evenodd"
    d="M109.521 22.3923C111.508 22.3923 113.266 21.7502 115.416 20.2594L115.711 20.0483L116.295 23.961L116.176 24.0396C114.087 25.4773 111.691 26.214 109.048 26.214C103.641 26.214 100.266 22.516 100.266 16.5468C100.266 13.2485 101.175 10.5878 102.896 8.87786C104.308 7.46345 106.183 6.74642 108.47 6.75225C113.676 6.76171 116.312 9.98726 116.312 16.3284L116.262 17.6082H105.064C105.339 20.6459 106.941 22.3923 109.521 22.3923ZM108.362 10.2158C106.516 10.2158 105.348 11.7569 105.132 14.4409H111.603C111.504 12.4557 110.846 10.2158 108.362 10.2158Z"
    fill="#0E1941"
  />
</svg>
