<svg width="159" height="53" viewBox="0 0 159 53" fill="none" xmlns="http://www.w3.org/2000/svg">
<rect width="158.839" height="53" fill="#45BCE5"/>
<path d="M78.9154 25.9374C78.9154 25.9374 79.1399 26.3535 79.0226 26.7768L80.5155 29.1773L81.0874 29.4258L81.2673 29.533L81.9643 29.9648C81.9643 29.9648 82.496 30.3244 82.496 30.3317L83.4873 30.468C84.2943 30.5606 84.5691 30.8377 84.7691 31.1226C85.3008 31.9513 84.4909 32.7159 84.4909 32.7159C84.4909 32.7159 84.8149 32.0613 84.2095 31.6246C84.0341 31.5018 83.6967 31.2867 83.1204 31.2381L82.1603 31.1767L82.1123 31.1639L81.47 30.7344L80.768 30.3155L80.5367 30.1859C80.5367 30.1859 79.9257 29.8397 79.8855 29.8016L79.5884 29.3995C79.5884 29.3995 79.4957 29.2555 79.4957 29.2538L77.9386 27.0276L78.0559 26.9628C78.4513 26.7081 78.7071 26.4411 78.802 26.2077L78.9154 25.9374Z" fill="#0E1941"/>
<path d="M78.2564 31.6118L78.1547 31.4833L77.9525 31.1985L76.0257 28.5691L76.1692 28.4769C76.439 28.3306 76.8238 28.0251 76.9685 27.8407C77.1131 27.6575 77.2013 27.4872 77.2013 27.4872C77.2013 27.4872 77.3399 27.9988 77.1751 28.3551C77.2365 28.4456 77.7576 29.1661 77.7576 29.1661L77.8503 29.2772L77.9263 29.3771C78.2049 29.7433 78.5135 30.1489 78.7411 30.5606C78.7411 30.5606 78.9215 30.8701 78.9215 30.8974V30.8991C78.9254 30.8991 79.69 31.1599 79.69 31.1599L80.6322 31.643L80.8031 31.7436C80.8031 31.7436 81.3868 32.082 81.3868 32.0876C83.5102 32.0619 84.0821 32.6813 84.1279 33.3442C84.1748 34.0351 83.494 34.4668 83.4074 34.5109C83.4074 34.5109 83.8079 34.0133 83.4789 33.547C83.2349 33.1946 82.7663 32.9673 82.1648 32.9198C81.8833 32.8979 81.516 32.9071 81.2485 32.9139C81.059 32.9187 80.9196 32.9223 80.8964 32.9125L80.186 32.4947C79.9196 32.3311 79.3449 32.0692 78.9254 31.8972C78.9254 31.8972 78.2982 31.647 78.2564 31.6118Z" fill="#0E1941"/>
<path d="M76.0492 32.9276L75.7157 32.5892L73.5091 29.6927L73.6956 29.6425C74.1123 29.533 74.7361 29.2538 74.9467 29.0828C74.9978 29.0389 75.038 29.005 75.0703 28.9778C75.168 28.8952 75.1921 28.875 75.2215 28.8287C75.2533 29.2845 74.974 29.7106 74.95 29.7034C74.95 29.7034 75.2416 30.1557 75.2555 30.1742L75.484 30.5088C75.484 30.5088 76.0134 31.2744 76.0151 31.2755L76.1983 31.5341C76.1983 31.5341 76.6987 32.2323 76.6987 32.249C76.7004 32.2513 77.2583 32.469 77.2583 32.469C77.2583 32.469 78.1391 32.9337 78.1771 32.9516L78.4557 33.1097C78.4557 33.1097 79.1198 33.537 79.1198 33.547H79.1829C79.1829 33.547 79.8822 33.4817 80.3485 33.509C81.8297 33.5961 82.2754 34.0876 82.3273 34.4596C82.4256 34.9008 81.9062 35.2706 81.9062 35.2706C81.9062 35.2706 82.0765 34.8047 81.575 34.5467C81.1187 34.3401 80.4401 34.3277 79.8565 34.3401L78.8406 34.4038C78.8406 34.4038 78.7445 34.4038 78.697 34.3892L77.9073 33.9575L77.4404 33.6955L77.3594 33.6497L76.7222 33.3035C76.7222 33.3035 76.0492 32.9298 76.0492 32.9276Z" fill="#0E1941"/>
<path fill-rule="evenodd" clip-rule="evenodd" d="M60 26.2428C60 18.1121 68.7127 11.5 79.4203 11.5C90.129 11.5 98.8395 18.1121 98.8395 26.2428C98.8395 34.3701 90.129 41.5 79.4203 41.5C68.7127 41.5 60 34.3701 60 26.2428ZM62.6082 26.2607C62.6082 33.8412 70.1519 40.493 79.4208 40.493C88.6942 40.493 96.2351 33.8412 96.2351 26.2607C96.2351 23.3392 95.1163 20.6278 93.2106 18.398C92.5663 18.8334 91.7844 19.3649 91.5119 19.7709L91.7185 20.1496L91.7441 20.1974C91.9163 20.5201 92.0976 20.8596 92.2759 21.404C92.6591 22.5339 92.8612 23.8675 92.8612 25.2632C92.8612 25.5704 92.8517 25.8815 92.8305 26.1926C92.8305 26.1926 92.7747 26.3764 92.7747 26.3808L92.4842 27.1611L92.3608 27.4898C91.9388 28.6128 91.2934 30.3303 91.0991 31.065C91.0991 31.065 91.0053 31.2442 91.0053 31.2477C90.0229 32.3898 88.7685 34.0938 88.1944 35.4766C88.076 35.7341 87.8995 35.8737 87.675 35.915C87.36 35.9731 86.9724 35.7922 86.5596 35.3889C86.3965 35.2158 86.253 34.9879 86.1162 34.7455C86.092 34.7788 86.0614 34.8176 86.0358 34.8501C86.0094 34.8837 85.9883 34.9104 85.9849 34.9175C85.57 35.5045 84.8646 36.3445 83.5722 37.0035C82.9612 37.3202 81.4365 37.8324 79.761 37.9697C78.6473 38.0698 77.9643 38.0161 77.4627 37.9156C76.9584 37.8178 76.4289 37.6229 76.2681 36.9555C75.031 37.5068 73.7168 36.6785 74.0732 35.6492C73.4571 35.8921 71.723 35.261 72.7032 33.5632C72.6861 33.5432 72.6279 33.4687 72.5609 33.3829C72.4786 33.2775 72.3829 33.1552 72.334 33.0957C72.081 33.7424 71.6688 34.2787 71.0852 34.6595C70.8271 34.7958 70.4323 34.788 70.224 34.6595C70.0592 34.5551 69.9213 34.3406 69.8135 34.0201C69.8036 34.0052 69.794 33.9871 69.7818 33.9637C69.7719 33.9448 69.7603 33.9224 69.7453 33.8955C68.6065 31.5677 67.6632 30.3479 67.0857 29.7475C66.9925 29.69 66.9349 29.5447 66.9115 29.3046C66.8093 28.4534 66.5697 27.27 66.3563 26.2311L66.325 26.0831L65.9425 24.0837L65.9341 23.9413C65.9603 23.06 66.4027 21.9413 66.8445 20.8298C66.8445 20.8298 67.3253 19.4956 67.3533 19.4213C67.1812 19.2761 66.0117 18.3076 65.986 18.2898L65.827 18.1762C63.8035 20.4469 62.6082 23.2417 62.6082 26.2607ZM66.6174 17.3561C68.2546 15.7831 70.3163 14.5145 72.656 13.6699C72.7111 13.7256 72.7646 13.781 72.7646 13.781L73.5487 14.4987C73.5487 14.5031 73.9972 14.9225 73.9972 14.9225C74.3284 15.2404 74.4066 15.4029 74.396 15.4649C74.382 15.5263 74.3206 15.5559 74.2614 15.5888C74.2033 15.6235 74.11 15.6447 74.11 15.6447L74.0732 15.9429L74.2575 15.9346C75.2918 15.91 76.2653 16.6104 76.897 17.2052C77.9911 18.2479 78.8165 19.938 79.0014 21.5174L79.8559 25.9659L80.1782 26.6506L80.2396 26.7902L80.3803 27.0806C80.5015 27.3705 80.6886 27.6274 80.706 27.6447C80.7261 27.6637 81.1483 27.9994 81.1483 27.9994L81.7666 28.6305L81.9486 28.8277L82.2446 29.1225C82.2681 29.1393 83.1377 29.251 83.1377 29.251C84.6535 29.504 84.5887 30.3462 84.5887 30.3462C84.5887 30.3462 85.4901 28.9622 83.3376 28.4752C83.3376 28.4752 82.6596 28.3467 82.6451 28.3467V28.3446C82.6451 28.3289 82.4027 27.9999 82.4027 27.9999C82.3753 27.9701 82.3483 27.94 82.3217 27.9095C82.3083 27.8927 81.6649 27.2599 81.6649 27.2599L81.3689 26.9795C81.3689 26.9728 81.1008 26.2579 81.1008 26.2579L80.7199 25.3353C80.6227 25.0516 80.5591 24.5981 80.4731 23.9731C80.4675 23.9491 80.4066 23.5224 80.4066 23.5224L80.124 21.657C80.1257 21.6435 80.1382 21.5713 80.1517 21.4946C80.1689 21.3966 80.1877 21.2912 80.1877 21.2912C80.3111 20.5919 80.573 19.8195 80.9662 18.9879C81.4387 17.9938 82.4167 17.3359 82.4284 17.332C83.1572 16.8796 84.2268 16.6305 84.8009 16.5221C85.0187 16.4998 85.0891 16.3713 85.1282 16.2407L85.1533 16.1664L85.0807 16.1552C84.7629 16.0955 84.3977 15.9893 84.3681 15.9301C84.3606 15.9118 84.3567 15.8923 84.3563 15.8726C84.3563 15.8156 84.3977 15.7285 84.4747 15.6117C84.4792 15.6117 84.9422 15.1627 84.9422 15.1627L85.2136 14.8935L86.3987 13.7474C88.7369 14.6231 90.7887 15.9247 92.4049 17.5302C92.2413 17.643 91.9481 17.8458 91.9481 17.8458C91.365 18.2434 90.7752 18.4049 90.41 18.2579C90.3563 18.2378 89.8727 17.9642 89.8727 17.9642C89.8358 17.9421 89.7978 17.922 89.7587 17.9038C89.742 17.9005 89.594 17.8809 89.594 17.8809C89.5336 17.8916 89.4735 17.9036 89.4136 17.9167L89.308 17.9424L89.4728 18.1323C89.7999 18.5215 89.9762 18.8584 90.2082 19.302L90.2385 19.3599C90.2452 19.3711 90.3859 19.6369 90.3859 19.6369L90.5267 19.9664L90.5557 20.034L90.74 20.5098L90.7735 20.6104L90.8735 20.8851L91.2589 22.2429C91.5878 23.6241 91.7543 24.7634 91.7627 25.7358C91.7627 25.7497 91.7476 25.8474 91.7476 25.8474L91.2935 27.1264L91.2268 27.315C90.7718 28.6023 90.2323 30.1284 90.1067 30.774L90.0788 30.8544C88.8244 32.1614 87.9352 33.7028 87.5577 34.6243C87.4979 34.7455 87.4571 34.7623 87.4404 34.7651C87.3861 34.7746 87.25 34.6527 87.1688 34.58L87.1572 34.5696C86.8428 34.2859 86.6546 33.6966 86.678 33.0728C86.7088 32.3082 87.0377 31.6279 87.5862 31.199C87.675 31.132 87.6415 31.0052 87.6213 30.9326C87.4683 30.0625 87.7146 28.731 88.2508 28.354L88.3899 28.2524L88.2541 28.1502C86.7177 26.9594 85.9665 24.7572 85.9028 23.1141L85.8945 22.8985L85.656 22.9996C85.628 23.022 85.5376 23.1616 85.5376 23.1616C85.4792 23.4781 85.4504 23.7993 85.4516 24.1211C85.4516 24.9656 85.6152 25.7022 85.6805 25.9659C85.8945 26.8729 86.3435 27.7128 87.0003 28.468C87.0003 28.468 87.0143 28.4847 87.0277 28.5026C86.7417 28.8617 86.6149 29.7352 86.6149 30.4099C86.6149 30.6165 86.625 30.7941 86.6507 30.9405C85.9324 31.5587 85.733 32.3467 85.694 32.9064L85.7174 33.5073C85.7096 33.4934 85.3683 33.9508 85.3683 33.9508L85.3013 34.0479C84.6183 34.9885 84.1402 35.6442 82.9981 36.2295C81.7543 36.8756 79.346 37.3202 77.7822 37.1666C77.2358 37.1061 77.2653 36.6376 77.2697 36.5686L77.27 36.5612C77.27 36.4903 77.2957 36.416 77.3471 36.3479C77.3471 36.3479 77.4627 36.2244 77.4962 36.1871C78.9757 36.3546 80.3865 36.1747 80.9729 35.8648C80.9975 35.8413 81.179 35.5733 81.179 35.5733L81.2499 35.447L81.107 35.4794C79.8487 35.7955 77.3488 35.3805 76.0268 34.8192C74.5585 34.1911 74.1088 33.5975 72.9111 32.0166L72.907 32.0111L72.5719 31.5699C72.5611 31.1231 72.4427 30.6855 72.2268 30.2943C72.0865 30.0471 71.9012 29.8283 71.6805 29.6492C71.771 29.3822 71.8235 29.0114 71.8235 28.6199C71.8235 28.0871 71.7263 27.5476 71.5398 27.2498C72.4334 26.5512 72.8869 25.8335 72.8741 25.0091C72.8662 24.6193 72.6518 24.0239 72.6518 24.0239L72.3083 23.8653L72.3318 24.0909C72.468 25.4787 71.1806 26.3807 70.3205 26.9833L70.31 26.9907C70.31 26.993 70.0586 27.1639 70.0586 27.1639L70.224 27.2666C70.8981 27.6872 70.907 29.103 70.7545 29.8988L70.7462 29.9447L70.7819 30.01L70.821 30.0301C70.8154 30.0284 71.1449 30.292 71.1449 30.292C71.8235 31.2035 71.7682 32.6143 71.0221 33.4459C70.8707 33.604 70.7897 33.6235 70.7478 33.6185C70.6367 33.5944 70.5479 33.3353 70.5233 33.2487L70.308 32.8033C69.7231 31.5855 69.2307 30.5604 68.0916 29.2002C68.0916 29.1979 68.062 29.0907 68.062 29.0907C67.8397 27.304 67.5621 25.9809 67.2918 24.7059L67.1433 24.0134L67.1254 23.8323C67.2069 22.4763 67.6269 21.4102 68.1195 20.1758L68.4178 19.4051L68.6635 18.8154C68.668 18.8154 68.7076 18.7288 68.7076 18.7288C68.9969 18.3155 69.3845 17.9245 69.8565 17.5632L70.067 17.4057L69.7934 17.2912C69.7934 17.2912 69.2594 17.3493 68.7255 17.6134L68.63 17.6587C68.239 17.8419 67.7883 17.9848 67.4493 17.8513C67.4493 17.8513 66.8701 17.5056 66.6174 17.3561ZM85.3505 13.3896C83.5057 12.8192 81.5071 12.507 79.4208 12.507C77.3958 12.507 75.4531 12.8015 73.6534 13.3408C74.489 14.0376 75.88 15.312 76.3172 15.7279C77.1617 16.0708 77.8403 16.569 78.396 17.2342C78.9059 17.853 79.2784 18.564 79.5744 19.4208C79.6159 19.3117 79.673 19.1626 79.7239 19.0298C79.7882 18.8622 79.8425 18.7206 79.8425 18.7187C80.2402 17.7978 81.2466 16.8382 82.2284 16.4378C82.6273 16.272 83.4954 15.3406 84.2672 14.5125L84.2765 14.5026L85.3505 13.3896ZM74.1966 34.9624C73.2543 35.2211 72.9065 34.5578 73.1287 34.0189C73.3073 34.2265 73.9731 34.8232 74.1966 34.9624ZM76.57 36.0138C75.1871 36.7169 74.4234 36.107 74.7585 35.366C75.2095 35.6686 75.9079 35.8897 76.57 36.0138Z" fill="#0E1941"/>
</svg>
