<?xml version="1.0" encoding="utf-8"?>
<!-- Generator: Adobe Illustrator 24.1.2, SVG Export Plug-In . SVG Version: 6.00 Build 0)  -->
<svg version="1.1" id="Layer_1" xmlns="http://www.w3.org/2000/svg" xmlns:xlink="http://www.w3.org/1999/xlink" x="0px" y="0px"
	 viewBox="0 0 542.15 187.03" style="enable-background:new 0 0 542.15 187.03;" xml:space="preserve">
<style type="text/css">
	.st0{fill:#FFFFFF;}
	.st1{fill:#025AAA;}
	.st2{fill:#231F20;}
	.st3{fill:#FD4D29;}
</style>
<g>
	<circle class="st0" cx="93.7" cy="93.52" r="57.52"/>
	<g>
		<path class="st1" d="M98.74,110.42V96.78c0,0,0.03-2.48-0.6-3.47c-0.65-1-2.55-1-2.55-1H36.22c-0.01,0.4-0.03,0.8-0.03,1.21
			c0,9.78,2.45,18.98,6.75,27.05h51.82C98.26,120.02,98.74,119.48,98.74,110.42z"/>
		<path class="st1" d="M98.2,86.6c0.66-1.02,0.5-2.86,0.54-3.82l-0.03-7.53c0.04-7.66,0.11-9.44-0.46-10.75
			c-0.44-1.02-1.91-1.22-3.03-1.31H44.86c0,0-0.01-0.01-0.01-0.01c-4.5,7.23-7.45,15.53-8.36,24.44l59.12,0.02
			C95.6,87.64,97.58,87.54,98.2,86.6z"/>
		<path class="st1" d="M137.51,87.57c-1.06,0.2-2.12,0.6-2.12,1.11c0,0.3,0.53,0.61,1.48,0.8c6.11,1.25,11.54,4.38,14.06,9.79
			c0.19-1.89,0.29-3.81,0.29-5.75c0-6.33-1.04-12.42-2.93-18.12C148.05,83.55,140.74,86.78,137.51,87.57z"/>
		<path class="st1" d="M118.67,125.25c-3.81,0-8.05,0-11.12,0c-5.17,0-35.14,0-61.82,0c10.3,15.53,27.93,25.78,47.97,25.78
			c21.71,0,40.61-12.03,50.4-29.79c-1.28,0.76-2.65,1.38-4.05,1.85C133.38,125.3,125.13,125.25,118.67,125.25z"/>
		<path class="st1" d="M141,62.22c0.57,0.33,1.11,0.68,1.62,1.06C132.48,46.91,114.37,36,93.7,36c-18.57,0-35.07,8.81-45.59,22.47
			c14.27,0,60.41,0,70.94,0C129.21,58.47,136.34,59.6,141,62.22z"/>
		<path class="st1" d="M120.69,92.15c-5.82,0-5.82,0.1-5.82,4.12v11.87c0,7.85,1.06,12.78,9.31,12.78c7.83,0,11.96-5.74,11.96-13.88
			C136.14,98.29,130.85,92.15,120.69,92.15z"/>
		<path class="st1" d="M120.48,87.73c9.1,0,12.48-5.53,12.48-11.57c0-8.75-5.71-13.08-13.01-13.08c-4.97,0-5.08,0.8-5.08,5.23v16.6
			C114.87,87.52,114.98,87.73,120.48,87.73z"/>
		<path class="st0" d="M136.87,89.48c-0.95-0.2-1.48-0.5-1.48-0.8c0-0.5,1.06-0.91,2.12-1.11c3.23-0.79,10.54-4.02,10.78-12.17
			c-1.42-4.29-3.33-8.35-5.67-12.13c-0.51-0.38-1.05-0.73-1.62-1.06c-4.66-2.62-11.79-3.75-21.95-3.75c-10.53,0-56.67,0-70.94,0
			c-1.16,1.51-2.25,3.08-3.27,4.7c0,0,0.01,0.01,0.01,0.01h50.35c1.12,0.09,2.59,0.28,3.03,1.31c0.57,1.31,0.5,3.09,0.46,10.75
			l0.03,7.53c-0.03,0.96,0.13,2.8-0.54,3.82c-0.61,0.95-2.59,1.04-2.59,1.04l-59.12-0.02c-0.16,1.55-0.24,3.11-0.27,4.69h59.37
			c0,0,1.9,0,2.55,1c0.64,0.99,0.6,3.47,0.6,3.47v13.64c0,9.06-0.48,9.61-3.98,10.14H42.94c0.86,1.61,1.79,3.17,2.8,4.69
			c26.68,0,56.65,0,61.82,0c3.07,0,7.31,0,11.12,0c6.46,0,14.71,0.05,21.38-2.16c1.41-0.47,2.77-1.09,4.05-1.85
			c3.66-6.64,6.05-14.07,6.83-21.97C148.41,93.86,142.98,90.73,136.87,89.48z M114.87,68.31c0-4.43,0.11-5.23,5.08-5.23
			c7.3,0,13.01,4.33,13.01,13.08c0,6.04-3.39,11.57-12.48,11.57c-5.5,0-5.61-0.2-5.61-2.82V68.31z M124.18,120.93
			c-8.25,0-9.31-4.93-9.31-12.78V96.28c0-4.02,0-4.12,5.82-4.12c10.16,0,15.45,6.14,15.45,14.89
			C136.14,115.19,132.01,120.93,124.18,120.93z"/>
	</g>
	<g>
		<path class="st1" d="M175.41,93.81v-35.6h11.61c3.85,0,6.75,0.8,8.7,2.4c1.94,1.6,2.92,3.96,2.92,7.09c0,1.66-0.47,3.13-1.42,4.41
			c-0.94,1.28-2.23,2.27-3.85,2.97c1.92,0.54,3.44,1.56,4.55,3.07c1.11,1.51,1.67,3.3,1.67,5.39c0,3.2-1.03,5.71-3.1,7.53
			c-2.07,1.83-4.98,2.74-8.76,2.74H175.41z M180.09,73.39h7.07c2.05,0,3.69-0.51,4.92-1.54s1.84-2.43,1.84-4.19
			c0-1.96-0.57-3.39-1.71-4.28c-1.14-0.89-2.87-1.34-5.2-1.34h-6.93V73.39z M180.09,77.16v12.81h7.73c2.18,0,3.9-0.57,5.16-1.7
			c1.26-1.13,1.89-2.69,1.89-4.68c0-4.29-2.33-6.43-6.98-6.43H180.09z"/>
		<path class="st1" d="M219.53,79.41h-8.34v14.4h-4.71v-35.6h11.76c4,0,7.08,0.91,9.23,2.74c2.15,1.83,3.23,4.48,3.23,7.97
			c0,2.22-0.6,4.15-1.79,5.79c-1.2,1.65-2.86,2.88-4.99,3.69l8.34,15.11v0.29h-5.02L219.53,79.41z M211.19,75.57h7.2
			c2.33,0,4.17-0.6,5.55-1.81c1.37-1.21,2.06-2.83,2.06-4.85c0-2.21-0.65-3.89-1.96-5.07c-1.31-1.18-3.2-1.77-5.67-1.79h-7.17V75.57
			z"/>
		<path class="st1" d="M242.29,93.81h-4.68v-35.6h4.68V93.81z"/>
		<path class="st1" d="M261.32,77.94c-4.02-1.16-6.94-2.58-8.77-4.27c-1.83-1.69-2.74-3.77-2.74-6.25c0-2.8,1.12-5.12,3.35-6.96
			c2.24-1.83,5.14-2.75,8.72-2.75c2.44,0,4.61,0.47,6.53,1.42c1.91,0.95,3.39,2.25,4.44,3.91c1.05,1.66,1.57,3.48,1.57,5.45h-4.71
			c0-2.16-0.68-3.86-2.05-5.09c-1.37-1.23-3.29-1.85-5.78-1.85c-2.31,0-4.11,0.51-5.4,1.53c-1.29,1.02-1.94,2.44-1.94,4.25
			c0,1.45,0.61,2.68,1.84,3.69c1.23,1,3.32,1.92,6.27,2.76c2.95,0.83,5.26,1.75,6.93,2.75c1.67,1,2.9,2.17,3.71,3.51
			c0.81,1.34,1.21,2.91,1.21,4.72c0,2.88-1.12,5.2-3.37,6.93c-2.24,1.74-5.24,2.6-9,2.6c-2.44,0-4.72-0.47-6.83-1.41
			c-2.11-0.94-3.74-2.22-4.89-3.85s-1.72-3.48-1.72-5.55h4.71c0,2.15,0.79,3.85,2.38,5.1s3.7,1.87,6.35,1.87
			c2.47,0,4.37-0.5,5.68-1.52s1.98-2.39,1.98-4.13s-0.61-3.09-1.83-4.05C266.73,79.81,264.52,78.87,261.32,77.94z"/>
		<path class="st1" d="M304.03,62.05h-11.42v31.76h-4.66V62.05h-11.39v-3.84h27.47V62.05z"/>
		<path class="st1" d="M332.92,77.16c0,3.49-0.58,6.53-1.76,9.13s-2.83,4.58-4.98,5.95s-4.65,2.05-7.51,2.05
			c-2.8,0-5.28-0.69-7.44-2.07c-2.16-1.38-3.84-3.34-5.04-5.89s-1.81-5.5-1.84-8.86v-2.57c0-3.42,0.59-6.45,1.78-9.07
			c1.19-2.62,2.87-4.63,5.04-6.03s4.66-2.09,7.45-2.09c2.85,0,5.35,0.69,7.53,2.07c2.17,1.38,3.84,3.37,5.01,5.99
			c1.17,2.62,1.76,5.66,1.76,9.13V77.16z M328.26,74.86c0-4.22-0.85-7.46-2.54-9.72c-1.69-2.26-4.06-3.39-7.1-3.39
			c-2.96,0-5.29,1.13-6.99,3.39c-1.7,2.26-2.57,5.39-2.62,9.4v2.62c0,4.09,0.86,7.31,2.57,9.64c1.71,2.34,4.08,3.51,7.09,3.51
			c3.02,0,5.37-1.1,7.03-3.31c1.66-2.21,2.51-5.38,2.56-9.5V74.86z"/>
		<path class="st1" d="M344.66,89.97h16.83v3.84h-21.54v-35.6h4.71V89.97z"/>
		<path class="st1" d="M387.86,82.59l0.68,4.69l1-4.23l7.03-24.84h3.95l6.85,24.84l0.98,4.3l0.76-4.79l5.51-24.35h4.71l-8.61,35.6
			h-4.27l-7.32-25.94l-0.56-2.71L398,67.87l-7.59,25.94h-4.27l-8.59-35.6h4.68L387.86,82.59z"/>
		<path class="st1" d="M444.59,77.35H429.2v12.62h17.88v3.84h-22.56v-35.6h22.32v3.84H429.2v11.47h15.39V77.35z"/>
		<path class="st1" d="M463.38,77.94c-4.02-1.16-6.94-2.58-8.77-4.27c-1.83-1.69-2.74-3.77-2.74-6.25c0-2.8,1.12-5.12,3.35-6.96
			c2.24-1.83,5.14-2.75,8.72-2.75c2.44,0,4.61,0.47,6.52,1.42s3.39,2.25,4.44,3.91c1.05,1.66,1.57,3.48,1.57,5.45h-4.71
			c0-2.16-0.68-3.86-2.05-5.09c-1.37-1.23-3.29-1.85-5.78-1.85c-2.31,0-4.11,0.51-5.4,1.53c-1.29,1.02-1.94,2.44-1.94,4.25
			c0,1.45,0.61,2.68,1.84,3.69c1.23,1,3.32,1.92,6.27,2.76c2.95,0.83,5.26,1.75,6.93,2.75c1.67,1,2.9,2.17,3.71,3.51
			c0.8,1.34,1.21,2.91,1.21,4.72c0,2.88-1.12,5.2-3.37,6.93c-2.24,1.74-5.24,2.6-9,2.6c-2.44,0-4.72-0.47-6.83-1.41
			c-2.11-0.94-3.74-2.22-4.89-3.85s-1.72-3.48-1.72-5.55h4.71c0,2.15,0.79,3.85,2.38,5.1c1.58,1.25,3.7,1.87,6.35,1.87
			c2.47,0,4.37-0.5,5.68-1.52c1.32-1.01,1.98-2.39,1.98-4.13s-0.61-3.09-1.83-4.05C468.79,79.81,466.58,78.87,463.38,77.94z"/>
		<path class="st1" d="M507.09,62.05h-11.42v31.76h-4.66V62.05h-11.39v-3.84h27.47V62.05z"/>
		<path class="st1" d="M508.71,61.91c0-0.71,0.16-1.36,0.49-1.97c0.33-0.61,0.78-1.08,1.36-1.43c0.58-0.35,1.2-0.52,1.87-0.52
			c0.67,0,1.3,0.17,1.87,0.52c0.58,0.35,1.03,0.83,1.36,1.43s0.49,1.26,0.49,1.97c0,0.69-0.16,1.34-0.47,1.94
			c-0.31,0.6-0.76,1.09-1.34,1.45s-1.21,0.55-1.91,0.55c-0.69,0-1.32-0.18-1.9-0.54s-1.03-0.84-1.34-1.45
			C508.87,63.25,508.71,62.6,508.71,61.91z M509.31,61.9c0,0.6,0.14,1.16,0.42,1.67c0.28,0.51,0.66,0.91,1.14,1.21
			c0.48,0.29,1,0.44,1.56,0.44c0.56,0,1.09-0.15,1.57-0.44s0.86-0.7,1.13-1.21c0.27-0.51,0.41-1.06,0.41-1.67
			c0-0.6-0.14-1.15-0.41-1.66s-0.65-0.91-1.13-1.2s-1-0.44-1.57-0.44c-0.56,0-1.08,0.14-1.56,0.43c-0.48,0.29-0.86,0.69-1.14,1.2
			C509.45,60.76,509.31,61.31,509.31,61.9z M511.66,62.3v1.78h-0.74v-4.46h1.45c0.54,0,0.95,0.11,1.25,0.34
			c0.3,0.23,0.44,0.56,0.44,1c0,0.43-0.22,0.76-0.67,0.99c0.43,0.17,0.64,0.53,0.64,1.07v0.32c0,0.3,0.03,0.52,0.09,0.65v0.08h-0.76
			c-0.05-0.13-0.07-0.35-0.07-0.67s-0.01-0.52-0.02-0.58c-0.06-0.34-0.28-0.51-0.69-0.53H511.66z M511.66,61.63h0.82
			c0.25-0.01,0.45-0.07,0.61-0.18c0.15-0.12,0.23-0.27,0.23-0.46c0-0.25-0.07-0.44-0.21-0.54c-0.14-0.11-0.38-0.16-0.73-0.16h-0.72
			V61.63z"/>
	</g>
	<g>
		<path class="st2" d="M183.71,126.6h-7.85l-1.78,4.87h-1.53l6.55-17.33h1.39l6.55,17.33h-1.52L183.71,126.6z M176.31,125.36h6.94
			l-3.47-9.44L176.31,125.36z"/>
		<path class="st2" d="M205.01,123.36h-8.07v8.11h-1.46v-17.33h10.71v1.24h-9.25v6.75h8.07V123.36z"/>
		<path class="st2" d="M215.56,131.47c-0.14-0.41-0.23-1-0.27-1.8c-0.5,0.65-1.13,1.15-1.91,1.51c-0.77,0.35-1.59,0.53-2.45,0.53
			c-1.24,0-2.24-0.35-3-1.04s-1.15-1.56-1.15-2.62c0-1.25,0.52-2.25,1.56-2.98c1.04-0.73,2.49-1.1,4.35-1.1h2.58v-1.46
			c0-0.92-0.28-1.64-0.85-2.17c-0.57-0.53-1.39-0.79-2.48-0.79c-0.99,0-1.81,0.25-2.46,0.76c-0.65,0.51-0.97,1.12-0.97,1.83
			l-1.43-0.01c0-1.02,0.48-1.91,1.43-2.66c0.95-0.75,2.12-1.12,3.5-1.12c1.43,0,2.56,0.36,3.39,1.08c0.83,0.72,1.25,1.72,1.28,3.01
			v6.1c0,1.25,0.13,2.18,0.39,2.8v0.14H215.56z M211.1,130.45c0.95,0,1.8-0.23,2.55-0.69c0.75-0.46,1.29-1.08,1.63-1.84v-2.83h-2.54
			c-1.42,0.02-2.53,0.28-3.33,0.78s-1.2,1.2-1.2,2.08c0,0.72,0.27,1.32,0.8,1.8C209.55,130.21,210.24,130.45,211.1,130.45z"/>
		<path class="st2" d="M226.42,119.8c-0.3-0.06-0.62-0.08-0.96-0.08c-0.89,0-1.64,0.25-2.25,0.74s-1.05,1.22-1.31,2.16v8.85h-1.41
			v-12.88h1.39l0.02,2.05c0.75-1.52,1.96-2.29,3.62-2.29c0.4,0,0.71,0.05,0.94,0.15L226.42,119.8z"/>
		<path class="st2" d="M229.96,118.59l0.05,2.09c0.48-0.78,1.07-1.36,1.78-1.75c0.71-0.39,1.5-0.58,2.38-0.58
			c2.03,0,3.31,0.83,3.86,2.5c0.46-0.8,1.07-1.42,1.84-1.85s1.62-0.65,2.54-0.65c2.76,0,4.16,1.51,4.22,4.52v8.6h-1.43v-8.49
			c-0.01-1.15-0.26-2-0.74-2.56c-0.49-0.56-1.28-0.83-2.38-0.83c-1.02,0.02-1.88,0.35-2.59,0.99c-0.71,0.65-1.1,1.43-1.18,2.36v8.52
			h-1.43v-8.6c-0.01-1.1-0.27-1.93-0.78-2.47s-1.3-0.82-2.36-0.82c-0.9,0-1.66,0.26-2.3,0.77s-1.12,1.27-1.43,2.28v8.83h-1.43
			v-12.88H229.96z"/>
		<path class="st2" d="M255.2,131.71c-1.09,0-2.08-0.27-2.96-0.81c-0.88-0.54-1.57-1.29-2.06-2.26c-0.49-0.96-0.74-2.04-0.74-3.24
			v-0.51c0-1.24,0.24-2.35,0.72-3.35s1.15-1.77,2-2.34c0.85-0.57,1.78-0.85,2.78-0.85c1.56,0,2.8,0.53,3.71,1.6s1.37,2.53,1.37,4.38
			v0.8h-9.17v0.27c0,1.46,0.42,2.68,1.25,3.65s1.89,1.46,3.15,1.46c0.76,0,1.43-0.14,2.01-0.42c0.58-0.28,1.11-0.72,1.59-1.33
			l0.89,0.68C258.71,130.95,257.19,131.71,255.2,131.71z M254.94,119.56c-1.07,0-1.97,0.39-2.7,1.18c-0.73,0.79-1.18,1.84-1.34,3.17
			h7.71v-0.15c-0.04-1.24-0.39-2.25-1.06-3.02C256.89,119.95,256.02,119.56,254.94,119.56z"/>
		<path class="st2" d="M268.73,119.8c-0.3-0.06-0.62-0.08-0.96-0.08c-0.89,0-1.64,0.25-2.25,0.74s-1.05,1.22-1.31,2.16v8.85h-1.41
			v-12.88h1.39l0.02,2.05c0.75-1.52,1.96-2.29,3.62-2.29c0.4,0,0.71,0.05,0.94,0.15L268.73,119.8z"/>
		<path class="st2" d="M278.68,128.2c0-0.71-0.28-1.27-0.85-1.7s-1.42-0.76-2.56-1.01c-1.14-0.24-2.03-0.52-2.66-0.83
			c-0.63-0.31-1.1-0.7-1.4-1.15c-0.31-0.45-0.46-1-0.46-1.64c0-1.02,0.42-1.85,1.27-2.52c0.85-0.66,1.93-0.99,3.25-0.99
			c1.43,0,2.58,0.36,3.45,1.07c0.87,0.71,1.3,1.64,1.3,2.78h-1.43c0-0.75-0.31-1.38-0.94-1.88c-0.63-0.5-1.42-0.75-2.38-0.75
			c-0.93,0-1.69,0.21-2.25,0.62c-0.57,0.42-0.85,0.96-0.85,1.63c0,0.64,0.24,1.14,0.71,1.49c0.47,0.35,1.33,0.68,2.58,0.97
			c1.25,0.29,2.18,0.61,2.8,0.94c0.62,0.33,1.08,0.73,1.38,1.2c0.3,0.47,0.45,1.04,0.45,1.7c0,1.09-0.44,1.96-1.31,2.61
			c-0.88,0.65-2.02,0.98-3.43,0.98c-1.5,0-2.71-0.36-3.64-1.09c-0.93-0.73-1.4-1.64-1.4-2.76h1.43c0.06,0.83,0.41,1.48,1.05,1.95
			c0.65,0.46,1.5,0.7,2.56,0.7c0.99,0,1.79-0.22,2.4-0.65S278.68,128.86,278.68,128.2z"/>
		<path class="st2" d="M291.33,131.47h-1.46v-17.33h1.46V131.47z"/>
		<path class="st2" d="M297.04,118.59l0.05,2.2c0.48-0.79,1.08-1.4,1.81-1.82s1.52-0.62,2.39-0.62c1.38,0,2.4,0.39,3.08,1.17
			c0.67,0.78,1.01,1.94,1.02,3.5v8.45h-1.41V123c-0.01-1.15-0.25-2.01-0.73-2.57c-0.48-0.56-1.25-0.84-2.3-0.84
			c-0.88,0-1.66,0.28-2.33,0.83c-0.68,0.55-1.18,1.3-1.5,2.23v8.82h-1.41v-12.88H297.04z"/>
		<path class="st2" d="M316.75,128.2c0-0.71-0.28-1.27-0.85-1.7s-1.42-0.76-2.56-1.01s-2.03-0.52-2.66-0.83s-1.1-0.7-1.4-1.15
			s-0.46-1-0.46-1.64c0-1.02,0.42-1.85,1.27-2.52s1.93-0.99,3.25-0.99c1.43,0,2.58,0.36,3.45,1.07s1.3,1.64,1.3,2.78h-1.43
			c0-0.75-0.31-1.38-0.94-1.88s-1.42-0.75-2.38-0.75c-0.93,0-1.68,0.21-2.25,0.62c-0.57,0.42-0.85,0.96-0.85,1.63
			c0,0.64,0.24,1.14,0.71,1.49c0.47,0.35,1.33,0.68,2.58,0.97c1.25,0.29,2.18,0.61,2.8,0.94c0.62,0.33,1.08,0.73,1.38,1.2
			c0.3,0.47,0.45,1.04,0.45,1.7c0,1.09-0.44,1.96-1.31,2.61c-0.88,0.65-2.02,0.98-3.43,0.98c-1.5,0-2.71-0.36-3.64-1.09
			c-0.93-0.73-1.4-1.64-1.4-2.76h1.42c0.06,0.83,0.41,1.48,1.05,1.95c0.65,0.46,1.5,0.7,2.56,0.7c0.99,0,1.79-0.22,2.4-0.65
			C316.44,129.41,316.75,128.86,316.75,128.2z"/>
		<path class="st2" d="M329.64,129.84c-0.86,1.25-2.22,1.87-4.1,1.87c-1.37,0-2.41-0.4-3.12-1.2c-0.71-0.8-1.08-1.98-1.09-3.54
			v-8.38h1.41v8.2c0,2.45,0.99,3.68,2.97,3.68c2.06,0,3.36-0.85,3.91-2.56v-9.32h1.43v12.88h-1.38L329.64,129.84z"/>
		<path class="st2" d="M340.67,119.8c-0.3-0.06-0.62-0.08-0.96-0.08c-0.89,0-1.64,0.25-2.25,0.74c-0.61,0.5-1.05,1.22-1.31,2.16
			v8.85h-1.41v-12.88h1.39l0.02,2.05c0.75-1.52,1.96-2.29,3.62-2.29c0.4,0,0.71,0.05,0.94,0.15L340.67,119.8z"/>
		<path class="st2" d="M350.56,131.47c-0.14-0.41-0.23-1-0.27-1.8c-0.5,0.65-1.13,1.15-1.91,1.51c-0.77,0.35-1.59,0.53-2.45,0.53
			c-1.24,0-2.24-0.35-3-1.04c-0.76-0.69-1.15-1.56-1.15-2.62c0-1.25,0.52-2.25,1.56-2.98s2.49-1.1,4.35-1.1h2.58v-1.46
			c0-0.92-0.28-1.64-0.85-2.17s-1.39-0.79-2.48-0.79c-0.99,0-1.81,0.25-2.46,0.76c-0.65,0.51-0.97,1.12-0.97,1.83l-1.42-0.01
			c0-1.02,0.47-1.91,1.42-2.66s2.12-1.12,3.5-1.12c1.43,0,2.56,0.36,3.39,1.08c0.83,0.72,1.25,1.72,1.28,3.01v6.1
			c0,1.25,0.13,2.18,0.39,2.8v0.14H350.56z M346.09,130.45c0.95,0,1.8-0.23,2.55-0.69c0.75-0.46,1.29-1.08,1.63-1.84v-2.83h-2.54
			c-1.42,0.02-2.53,0.28-3.33,0.78c-0.8,0.5-1.2,1.2-1.2,2.08c0,0.72,0.27,1.32,0.8,1.8C344.54,130.21,345.23,130.45,346.09,130.45z
			"/>
		<path class="st2" d="M356.83,118.59l0.05,2.2c0.48-0.79,1.08-1.4,1.81-1.82s1.52-0.62,2.39-0.62c1.38,0,2.4,0.39,3.08,1.17
			c0.67,0.78,1.01,1.94,1.02,3.5v8.45h-1.41V123c-0.01-1.15-0.25-2.01-0.73-2.57c-0.48-0.56-1.25-0.84-2.3-0.84
			c-0.88,0-1.66,0.28-2.33,0.83c-0.68,0.55-1.18,1.3-1.5,2.23v8.82h-1.41v-12.88H356.83z"/>
		<path class="st2" d="M373.59,130.5c0.99,0,1.82-0.28,2.49-0.84c0.67-0.56,1.03-1.28,1.09-2.17h1.37c-0.04,0.79-0.29,1.5-0.74,2.15
			c-0.45,0.65-1.05,1.15-1.8,1.52c-0.75,0.37-1.55,0.55-2.41,0.55c-1.69,0-3.02-0.59-4.01-1.76c-0.99-1.17-1.48-2.75-1.48-4.74
			v-0.43c0-1.27,0.22-2.39,0.67-3.37c0.44-0.98,1.08-1.73,1.91-2.26c0.83-0.53,1.8-0.8,2.9-0.8c1.41,0,2.57,0.42,3.49,1.26
			c0.92,0.84,1.4,1.95,1.47,3.32h-1.37c-0.06-1.01-0.43-1.82-1.09-2.44c-0.66-0.62-1.5-0.93-2.5-0.93c-1.28,0-2.28,0.46-2.99,1.39
			c-0.71,0.93-1.06,2.23-1.06,3.91v0.42c0,1.64,0.35,2.92,1.06,3.85C371.3,130.04,372.3,130.5,373.59,130.5z"/>
		<path class="st2" d="M386.35,131.71c-1.09,0-2.08-0.27-2.96-0.81s-1.57-1.29-2.06-2.26c-0.49-0.96-0.74-2.04-0.74-3.24v-0.51
			c0-1.24,0.24-2.35,0.72-3.35c0.48-0.99,1.15-1.77,2-2.34c0.86-0.57,1.78-0.85,2.78-0.85c1.56,0,2.8,0.53,3.71,1.6
			s1.37,2.53,1.37,4.38v0.8H382v0.27c0,1.46,0.42,2.68,1.25,3.65c0.83,0.97,1.89,1.46,3.15,1.46c0.76,0,1.43-0.14,2.01-0.42
			c0.58-0.28,1.11-0.72,1.59-1.33l0.89,0.68C389.85,130.95,388.33,131.71,386.35,131.71z M386.08,119.56c-1.07,0-1.97,0.39-2.7,1.18
			c-0.73,0.79-1.18,1.84-1.34,3.17h7.71v-0.15c-0.04-1.24-0.39-2.25-1.06-3.02C388.03,119.95,387.16,119.56,386.08,119.56z"/>
		<path class="st2" d="M392.55,117.51c0-0.61,0.14-1.18,0.42-1.71c0.28-0.52,0.67-0.94,1.18-1.24c0.5-0.3,1.04-0.45,1.62-0.45
			s1.12,0.15,1.62,0.45c0.5,0.3,0.89,0.71,1.17,1.24c0.28,0.52,0.42,1.09,0.42,1.71c0,0.6-0.14,1.17-0.41,1.69s-0.66,0.94-1.16,1.25
			c-0.5,0.31-1.05,0.47-1.64,0.47s-1.14-0.16-1.64-0.47c-0.5-0.31-0.89-0.73-1.16-1.25S392.55,118.11,392.55,117.51z M392.93,117.51
			c0,0.54,0.13,1.05,0.38,1.52c0.25,0.47,0.6,0.83,1.04,1.1s0.91,0.4,1.42,0.4c0.5,0,0.98-0.13,1.42-0.4s0.79-0.64,1.04-1.11
			c0.25-0.47,0.37-0.97,0.37-1.51c0-0.53-0.12-1.03-0.37-1.49s-0.59-0.83-1.03-1.1c-0.44-0.27-0.92-0.41-1.44-0.41
			c-0.51,0-0.98,0.13-1.42,0.4c-0.44,0.27-0.79,0.63-1.04,1.1C393.06,116.47,392.93,116.97,392.93,117.51z M395.03,117.79v1.57
			h-0.44v-3.82h1.17c0.45,0,0.79,0.09,1.03,0.28c0.24,0.19,0.36,0.47,0.36,0.85c0,0.4-0.21,0.7-0.64,0.89
			c0.22,0.08,0.37,0.2,0.45,0.37c0.08,0.17,0.13,0.36,0.13,0.59s0.01,0.4,0.02,0.5c0.01,0.1,0.03,0.19,0.06,0.26v0.07h-0.46
			c-0.04-0.11-0.06-0.39-0.06-0.83c0-0.27-0.06-0.46-0.17-0.57s-0.31-0.17-0.58-0.17H395.03z M395.03,117.38h0.82
			c0.25,0,0.45-0.06,0.61-0.19c0.16-0.13,0.24-0.3,0.24-0.5c0-0.26-0.07-0.44-0.2-0.55c-0.13-0.11-0.36-0.17-0.68-0.17h-0.79V117.38
			z"/>
		<path class="st2" d="M419.88,126.06c-0.2,1.83-0.85,3.22-1.95,4.19c-1.1,0.97-2.58,1.45-4.41,1.45c-1.28,0-2.42-0.32-3.4-0.96
			c-0.99-0.64-1.75-1.55-2.29-2.73c-0.54-1.18-0.81-2.53-0.82-4.04v-2.25c0-1.54,0.27-2.91,0.81-4.1c0.54-1.19,1.31-2.11,2.32-2.76
			c1.01-0.65,2.17-0.97,3.49-0.97c1.85,0,3.32,0.5,4.39,1.5s1.7,2.39,1.87,4.16h-1.47c-0.36-2.94-1.96-4.42-4.79-4.42
			c-1.57,0-2.82,0.59-3.75,1.76s-1.4,2.8-1.4,4.87v2.12c0,2,0.45,3.6,1.36,4.79c0.91,1.19,2.13,1.79,3.68,1.79
			c1.53,0,2.68-0.37,3.46-1.1s1.25-1.83,1.44-3.3H419.88z"/>
		<path class="st2" d="M422.32,124.84c0-1.24,0.24-2.35,0.72-3.35c0.48-0.99,1.16-1.76,2.03-2.32s1.87-0.83,2.98-0.83
			c1.71,0,3.1,0.6,4.16,1.8c1.06,1.2,1.59,2.8,1.59,4.78v0.3c0,1.25-0.24,2.37-0.72,3.36s-1.15,1.76-2.03,2.3s-1.86,0.81-2.98,0.81
			c-1.7,0-3.09-0.6-4.15-1.8c-1.07-1.2-1.6-2.8-1.6-4.78V124.84z M423.74,125.23c0,1.54,0.4,2.8,1.19,3.79s1.84,1.48,3.13,1.48
			c1.28,0,2.32-0.49,3.12-1.48s1.19-2.29,1.19-3.91v-0.27c0-0.98-0.18-1.88-0.55-2.7s-0.88-1.45-1.53-1.9s-1.41-0.67-2.26-0.67
			c-1.27,0-2.3,0.5-3.1,1.49c-0.8,1-1.2,2.3-1.2,3.91V125.23z"/>
		<path class="st2" d="M438.02,118.59l0.05,2.09c0.48-0.78,1.07-1.36,1.78-1.75c0.71-0.39,1.5-0.58,2.38-0.58
			c2.03,0,3.31,0.83,3.86,2.5c0.46-0.8,1.07-1.42,1.84-1.85c0.77-0.43,1.62-0.65,2.54-0.65c2.76,0,4.16,1.51,4.22,4.52v8.6h-1.43
			v-8.49c-0.01-1.15-0.26-2-0.74-2.56c-0.49-0.56-1.28-0.83-2.38-0.83c-1.02,0.02-1.88,0.35-2.59,0.99
			c-0.71,0.65-1.1,1.43-1.18,2.36v8.52h-1.43v-8.6c-0.01-1.1-0.27-1.93-0.78-2.47s-1.3-0.82-2.36-0.82c-0.9,0-1.66,0.26-2.3,0.77
			s-1.12,1.27-1.43,2.28v8.83h-1.42v-12.88H438.02z"/>
		<path class="st2" d="M468.62,125.16c0,2.01-0.44,3.6-1.33,4.78s-2.08,1.77-3.56,1.77c-1.76,0-3.1-0.62-4.04-1.86v6.57h-1.41
			v-17.83h1.32l0.07,1.82c0.93-1.37,2.27-2.06,4.03-2.06c1.54,0,2.74,0.58,3.62,1.75s1.31,2.79,1.31,4.86V125.16z M467.2,124.91
			c0-1.64-0.34-2.94-1.01-3.89c-0.67-0.95-1.61-1.43-2.82-1.43c-0.87,0-1.62,0.21-2.25,0.63c-0.63,0.42-1.1,1.03-1.44,1.83v6.18
			c0.34,0.74,0.83,1.3,1.46,1.69s1.38,0.58,2.25,0.58c1.2,0,2.13-0.48,2.8-1.43C466.86,128.11,467.2,126.73,467.2,124.91z"/>
		<path class="st2" d="M479.89,131.47c-0.14-0.41-0.23-1-0.27-1.8c-0.5,0.65-1.13,1.15-1.91,1.51c-0.77,0.35-1.59,0.53-2.45,0.53
			c-1.24,0-2.24-0.35-3-1.04c-0.76-0.69-1.15-1.56-1.15-2.62c0-1.25,0.52-2.25,1.56-2.98s2.49-1.1,4.35-1.1h2.58v-1.46
			c0-0.92-0.28-1.64-0.85-2.17s-1.39-0.79-2.48-0.79c-0.99,0-1.81,0.25-2.46,0.76c-0.65,0.51-0.97,1.12-0.97,1.83l-1.42-0.01
			c0-1.02,0.47-1.91,1.42-2.66s2.12-1.12,3.5-1.12c1.43,0,2.56,0.36,3.39,1.08c0.83,0.72,1.25,1.72,1.28,3.01v6.1
			c0,1.25,0.13,2.18,0.39,2.8v0.14H479.89z M475.42,130.45c0.95,0,1.8-0.23,2.55-0.69c0.75-0.46,1.29-1.08,1.63-1.84v-2.83h-2.54
			c-1.42,0.02-2.53,0.28-3.33,0.78c-0.8,0.5-1.2,1.2-1.2,2.08c0,0.72,0.27,1.32,0.8,1.8C473.87,130.21,474.56,130.45,475.42,130.45z
			"/>
		<path class="st2" d="M486.16,118.59l0.05,2.2c0.48-0.79,1.08-1.4,1.81-1.82s1.52-0.62,2.39-0.62c1.38,0,2.4,0.39,3.08,1.17
			c0.67,0.78,1.01,1.94,1.02,3.5v8.45h-1.41V123c-0.01-1.15-0.25-2.01-0.73-2.57c-0.48-0.56-1.25-0.84-2.3-0.84
			c-0.88,0-1.66,0.28-2.33,0.83c-0.68,0.55-1.18,1.3-1.5,2.23v8.82h-1.41v-12.88H486.16z"/>
		<path class="st2" d="M502.24,129.42l3.75-10.83h1.53l-5.49,15.07l-0.29,0.67c-0.71,1.56-1.79,2.35-3.27,2.35
			c-0.34,0-0.71-0.06-1.09-0.17l-0.01-1.18l0.74,0.07c0.7,0,1.26-0.17,1.69-0.52c0.43-0.35,0.8-0.94,1.1-1.78l0.63-1.74l-4.85-12.77
			h1.56L502.24,129.42z"/>
	</g>
	<rect x="175.05" y="103.01" class="st3" width="332.07" height="2"/>
</g>
</svg>
