<svg xmlns="http://www.w3.org/2000/svg" viewBox="0 0 140.47 56.55"><defs><style>.cls-1{fill:#012169;}</style></defs><title>header-logo</title><path d="M0 26.27V0h13.3c2.8 0 4.78.7 6.12 2.17a7 7 0 0 1 1.85 4.73 5.72 5.72 0 0 1-4.4 5.75q5.07 1.24 5.07 6.15a7.45 7.45 0 0 1-2.88 6.14c-1.5.95-3.4 1.34-6.58 1.34H0zM7.4 10.1h3.75c1.6 0 2.56-.84 2.56-2.3s-1-2.17-2.67-2.17H7.4v4.45zm0 10.32h3.95c1.73 0 2.84-.9 2.84-2.32s-1.15-2.4-3.12-2.4H7.4v4.72zM44.32 6.7v19.57h-7.17v-3.2c-1 2.37-3.07 3.6-6.07 3.6-3.78 0-5.87-2.13-5.87-6v-14h7.73v12.36c0 1.6.35 2.13 1.54 2.13 1.38 0 2.2-1 2.2-2.72V6.7h7.64zM55.9 26.27h-7.37V6.7h6.42v4.05c.9-3.2 2.32-4.4 5.16-4.4.32 0 .56 0 1 .07v6.8a5.3 5.3 0 0 0-1.45-.15c-2.56 0-3.78 1.34-3.78 4.25v8.94zM82.85 26.27h-7.7V13.95c0-1.7-.42-2.37-1.6-2.37-1.47 0-2.14.95-2.14 3v11.7h-7.66V6.67h7.13v2.8c1.22-2.23 2.9-3.18 5.7-3.18a6.82 6.82 0 0 1 4.7 1.7c1.3 1.2 1.58 2.24 1.58 5.74v12.53zM85.4 20.72l6-.83c.52 1.53 1.66 2.12 4.1 2.12 1.9 0 3-.44 3-1.18 0-.6-.74-.95-2.5-1.22l-1.53-.2a17.84 17.84 0 0 1-5.55-1.58 5.47 5.47 0 0 1-2.6-4.8c0-4.1 3.6-6.75 9.22-6.75 4.53 0 7.64 1.76 8.9 5.1l-5.8 1.1C98 11.3 97 10.8 95.27 10.8c-1.46 0-2.44.47-2.44 1.1 0 .83.16.9 4.4 1.42 3 .36 4.3.75 5.56 1.6a5.57 5.57 0 0 1 2.52 4.78c0 4.33-3.86 7-10.08 7-5.28 0-8.47-1.94-9.8-5.96zM121 12.05c-2.56-.7-4.22-2.2-4.22-4.85 0-4.92 4.73-6.46 8.83-6.46 3.12 0 7.38.55 6.87 5.12a1.57 1.57 0 0 1-.95 1.1h-2.1a1.06 1.06 0 0 1-.84-1.22l.12-.43a2.27 2.27 0 0 0-2.37-3c-3.35 0-4.6 3.44-4.6 6.35 0 1.58.78 3.55 2.7 3.23.72-1.42 1.82-1.34 3.24-1.42l5.9.28c1.07 0 4.7.12 4.9-1.5a3 3 0 0 0-1-2.13l1-.62a4.6 4.6 0 0 1 2 3.67c0 2.8-1.74 4.1-4.35 4.37a12.47 12.47 0 0 1-2.7 0c-.56 6.46-4.86 12-11.63 12.1-4.7 0-9-1.67-9-7.06 0-4.77 3.4-7.2 8.22-7.5zm1.93 5.63l.9-4c-.2-.08.32-.28-1.14-.28-3.4 0-4.38 4.57-4.38 7.2s1.9 4.3 4.57 4.3c5.5 0 7.08-5.9 7.47-10.36l-2.35-.12a5.4 5.4 0 0 0-1.38 0c-1.34.08-1.73 1.65-2.24 3.23h-1.46zM34.9 29.87l-7 26.28h-6.7l-3.7-14.5L14 56.15H6.97l-7-26.28h7.56l3.7 15.16 3.58-15.16h6.35L25 45.03l3.7-15.16h6.16zM44.9 29.08v6.07h-7.7v-6.07h7.7zm0 7.48v19.6h-7.7v-19.6h7.7zM56.67 29.87v26.28H49.1V29.87h7.57zM72.02 48.27l6.54.55c-.83 5-4.1 7.72-9.38 7.72-5.95 0-10-4.1-10-10 0-6.1 4.14-10.32 10.17-10.32a9.14 9.14 0 0 1 6.74 2.64 7.66 7.66 0 0 1 2.4 5.12l-6.75.6-.08-.56c-.36-1.86-1-2.6-2.26-2.6-1.68 0-2.35 1.46-2.35 5 0 3.3.7 4.73 2.44 4.73 1.46.04 2.2-.83 2.52-2.88zM101.74 46.3c0 6-4.45 10.24-10.87 10.24-6.15 0-10.6-4.26-10.6-10.12s4.5-10.24 10.8-10.24 10.67 4.17 10.67 10.12zm-8.2.12v-.27c0-3.7-.7-5.16-2.52-5.16s-2.6 1.56-2.6 5.42c0 4 .66 5.5 2.47 5.5s2.57-1.4 2.64-5.5zM122.8 56.15h-8.68l-3.6-6.22-3.8 6.22h-6.3l6.9-10.36-6-9.23h8.54l1.9 3.47.23.38a1.7 1.7 0 0 0 .2.35 4.7 4.7 0 0 1 .27.48l.28-.44.23-.42.24-.4 2-3.46h6.34l-5.7 8.9z" class="cls-1"/></svg>