<svg xmlns="http://www.w3.org/2000/svg" width="272" height="48" viewBox="0 0 272 48" fill="none"><path d="M33.1166 22.3505C26.469 26.0206 19.9952 29.6907 13 28.5361C21.429 32.7423 28.5545 28.8247 36.071 24.9072C44.2828 20.6186 52.929 16.3711 64.269 22.5567C57.3172 20.1237 50.8434 22.9691 44.8476 25.8557C39.3297 28.4948 34.1593 31.0928 29.2931 29.6495C35.2455 33.567 41.3283 31.0515 47.889 28.4948C56.231 25.2783 65.3552 22.0619 76 32C66.6586 19.9175 58.6641 16 51.4083 16C44.891 16 38.9386 19.1753 33.1166 22.3505Z" fill="url(#paint0_linear_353_60640)"></path><path d="M80 18.5373H83.2015V20.0678C84.2386 18.8074 85.7267 18.3122 87.2598 18.3122C90.7319 18.3122 92.9865 21.2383 92.9865 24.8396C92.9865 28.4859 90.6868 31.4119 87.2147 31.4119C85.7267 31.4119 84.2837 30.8267 83.3819 29.7013V34.8331H80V18.5373ZM89.5144 24.8846C89.5144 22.9039 88.2067 21.4633 86.358 21.4633C84.6445 21.4633 83.3368 22.8588 83.3368 24.8846C83.3368 26.8653 84.5994 28.3058 86.358 28.3058C88.2067 28.3058 89.5144 26.8653 89.5144 24.8846Z" fill="#343F46"></path><path d="M94.3394 24.8846C94.3394 21.2383 96.5489 18.3122 100.066 18.3122C101.554 18.3122 103.087 18.8974 104.034 20.1129V18.5823H107.371V31.2318H104.034V29.7013C103.132 30.9167 101.554 31.4569 100.066 31.4569C96.594 31.4569 94.3394 28.5309 94.3394 24.8846ZM103.944 24.8846C103.944 22.9039 102.681 21.4633 100.923 21.4633C99.1191 21.4633 97.7664 22.9489 97.7664 24.8846C97.7664 26.8653 99.074 28.3058 100.923 28.3058C102.681 28.3058 103.944 26.9103 103.944 24.8846Z" fill="#343F46"></path><path d="M109.085 24.8846C109.085 21.2383 112.061 18.3122 115.849 18.3122C117.607 18.3122 119.095 18.8974 120.358 19.9328L118.329 22.3187C117.742 21.7785 116.931 21.4633 115.939 21.4633C113.955 21.4633 112.557 22.9039 112.557 24.8846C112.557 26.8653 113.91 28.3058 116.029 28.3058C117.111 28.3058 118.148 27.9007 118.78 27.2704L120.583 29.7913C119.366 30.8267 117.652 31.4119 115.849 31.4119C112.061 31.4569 109.085 28.5309 109.085 24.8846Z" fill="#343F46"></path><path d="M121.981 15.0257C121.981 13.9003 122.883 13 123.966 13C125.093 13 125.995 13.9003 125.995 15.0257C125.995 16.1061 125.093 17.0064 123.966 17.0064C122.883 17.0064 121.981 16.1061 121.981 15.0257ZM122.342 18.537H125.724V31.1865H122.342V18.537Z" fill="#343F46"></path><path d="M129.286 21.328H127.302V18.582H129.286V17.7267C129.286 14.8006 130.909 13.5402 133.074 13.5402C134.201 13.5402 135.463 13.8553 136.365 14.3055L135.418 16.8264C135.148 16.6913 134.562 16.4662 134.02 16.4662C133.299 16.4662 132.713 16.8264 132.713 18.1318V18.582H135.869V21.328H132.713V31.1865H129.331V21.328H129.286ZM137.357 15.0257C137.357 13.9003 138.259 13 139.341 13C140.469 13 141.37 13.9003 141.37 15.0257C141.37 16.1061 140.469 17.0064 139.341 17.0064C138.259 17.0064 137.357 16.1061 137.357 15.0257ZM137.718 18.537H141.1V31.1865H137.718V18.537Z" fill="#343F46"></path><path d="M142.814 24.8846C142.814 21.2383 145.79 18.3122 149.577 18.3122C151.336 18.3122 152.824 18.8974 154.087 19.9328L152.057 22.3187C151.471 21.7785 150.66 21.4633 149.668 21.4633C147.683 21.4633 146.286 22.9039 146.286 24.8846C146.286 26.8653 147.638 28.3058 149.758 28.3058C150.84 28.3058 151.877 27.9007 152.508 27.2704L154.312 29.7913C153.094 30.8267 151.381 31.4119 149.577 31.4119C145.79 31.4569 142.814 28.5309 142.814 24.8846Z" fill="#343F46"></path><path d="M160.549 29.5661L161.315 27.9906C162.217 28.8909 163.525 29.6111 165.328 29.6111C167.042 29.6111 168.395 28.8459 168.395 27.7205C168.395 26.415 166.907 26.0999 165.418 25.6947C163.119 25.1095 161.045 24.4793 161.045 22.1385C161.045 19.9327 163.389 18.6272 165.464 18.6272C167.177 18.6272 168.395 19.0774 169.657 19.9327L168.891 21.5082C167.853 20.788 166.771 20.4279 165.464 20.4279C164.201 20.4279 163.029 21.1481 163.029 22.0934C163.029 23.3089 164.381 23.579 165.824 23.8941C168.034 24.3893 170.334 25.2446 170.334 27.6754C170.334 30.2864 167.673 31.4568 165.283 31.4568C162.848 31.4568 161.225 30.2864 160.549 29.5661Z" fill="#343F46"></path><path d="M172.138 18.8973H173.986V21.0131C174.888 19.4375 176.692 18.6272 178.676 18.6272C182.103 18.6272 184.493 21.4182 184.493 25.0195C184.493 28.6208 182.103 31.4568 178.676 31.4568C176.737 31.4568 174.979 30.6465 174.032 29.0709V34.788H172.093V18.8973H172.138ZM182.554 25.0195C182.554 22.4086 180.75 20.5179 178.27 20.5179C175.925 20.5179 174.077 22.4536 174.077 25.0195C174.077 27.5854 175.925 29.5661 178.27 29.5661C180.75 29.5661 182.554 27.6304 182.554 25.0195Z" fill="#343F46"></path><path d="M186.296 25.0645C186.296 21.5082 188.957 18.6272 192.519 18.6272C195.811 18.6272 198.426 21.4632 198.426 24.9745C198.426 25.3346 198.381 25.6947 198.381 25.7398H188.325C188.641 28.1706 190.535 29.7462 192.789 29.7462C194.187 29.7462 195.585 29.251 196.577 28.4407L197.434 29.8362C196.126 30.8716 194.458 31.4568 192.789 31.4568C189.272 31.4568 186.296 28.9359 186.296 25.0645ZM196.487 24.2542C196.307 21.9584 194.548 20.3378 192.384 20.3378C190.264 20.3378 188.551 21.9584 188.28 24.2542H196.487Z" fill="#343F46"></path><path d="M200.185 25.0645C200.185 21.4632 203.026 18.6272 206.678 18.6272C208.392 18.6272 209.925 19.2124 211.097 20.2478L209.88 21.5983C209.113 20.878 207.986 20.4729 206.723 20.4729C204.153 20.4729 202.214 22.4086 202.214 25.0195C202.214 27.5854 204.108 29.5211 206.814 29.5211C208.211 29.5211 209.474 28.9809 210.331 28.1256L211.458 29.5661C210.286 30.6915 208.617 31.3668 206.769 31.3668C203.026 31.4568 200.185 28.6208 200.185 25.0645Z" fill="#343F46"></path><path d="M213.352 15.4312C213.352 14.7109 213.893 14.1257 214.615 14.1257C215.336 14.1257 215.922 14.7109 215.922 15.4312C215.922 16.1515 215.336 16.6917 214.615 16.6917C213.893 16.6917 213.352 16.1515 213.352 15.4312ZM213.668 18.8974H215.607V31.1868H213.668V18.8974Z" fill="#343F46"></path><path d="M217.86 25.0645C217.86 21.4632 220.25 18.6272 223.677 18.6272C225.661 18.6272 227.375 19.4375 228.322 21.0131V18.8523H230.261V31.1417H228.322V28.9809C227.42 30.6015 225.661 31.3668 223.677 31.3668C220.25 31.4568 217.86 28.6208 217.86 25.0645ZM228.322 25.0645C228.322 22.4986 226.473 20.5179 224.128 20.5179C221.693 20.5179 219.844 22.4536 219.844 25.0645C219.844 27.6754 221.648 29.5661 224.128 29.5661C226.473 29.5661 228.322 27.6304 228.322 25.0645Z" fill="#343F46"></path><path d="M232.794 14.5761H234.733V31.1871H232.794V14.5761Z" fill="#343F46"></path><path d="M238.612 27.4958V20.4733H236.763V18.8978H238.612V16.2418L240.551 15.8817V18.8978H244.744V20.4733H240.551V27.5409C240.551 29.2515 241.272 29.7016 242.264 29.7016C243.391 29.7016 244.293 29.0264 244.293 29.0264L244.925 30.5119C244.429 30.827 243.437 31.4122 242.084 31.4122C239.919 31.4573 238.612 30.3769 238.612 27.4958Z" fill="#343F46"></path><path d="M248.17 33.0775C249.522 33.0775 250.334 32.7174 251.191 30.9168L251.461 30.3766L245.915 18.8975H247.899L251.777 27.1804C252.048 27.7656 252.318 28.5759 252.318 28.5759C252.318 28.5759 252.679 27.5856 252.904 27.0904L256.557 18.8975H258.541L252.679 31.8171C251.326 34.7431 249.613 34.9232 248.17 34.9232V33.0775Z" fill="#343F46"></path><defs><linearGradient id="paint0_linear_353_60640" x1="13.0145" y1="24.0141" x2="76.0145" y2="24.0141" gradientUnits="userSpaceOnUse"><stop stop-color="#003DFF"></stop><stop offset="0.1948" stop-color="#007ACA"></stop><stop offset="0.5953" stop-color="#00ADFF"></stop><stop offset="0.7072" stop-color="#0DC5FF"></stop><stop offset="1" stop-color="#00E2C8"></stop></linearGradient></defs></svg>