<svg xmlns="http://www.w3.org/2000/svg" width="404.985" height="155.313" viewBox="0 0 404.985 155.313" xml:space="preserve"><path fill="#2957aa" d="m243.56 147.916-.666 1.497s-27.111-13.936-70-13.936c-51.84 0-58.79 19.836-120.393 19.836-20.038 0-44.22-5.41-52.501-10.901l.665-1.249c8.947 3.911 20.704 3.36 34.608 3.36 24.513 0 52.336-10.1 80.856-17.523 6.211-1.615 12.454-3.107 18.706-4.337 10.42-2.052 20.854-3.383 31.183-3.383 28.323 0 50.55 7.912 77.542 26.637M54.792 7.799h14.652c11.32 0 15.98 3.236 20.166 7.326 5.807 5.9 7.707 12.748 7.707 19.216 0 9.516-5.136 16.553-9.704 20.455C79.906 61.264 70.298 62.6 59.74 62.6h-4.948ZM68.017 68.59l41.617 58.34c6.757-1.84 13.564-3.571 20.395-5.03a100.556 100.556 0 0 1-1.602-1.08c-4.949-4.186-9.608-8.85-15.984-17.884L86.85 66.401c18.266-4.182 31.872-16.173 31.872-33.483 0-16.365-12.179-26.45-23.687-30.16C87.613.382 78.575 0 64.876 0H21.402v3.709h2.19c4.852 0 8.083 1.143 10.176 3.617 1.997 1.997 2.571 5.518 2.571 15.599v83.151c0 15.98-2.19 19.312-12.748 19.312H21.4V129H70.68v-3.612h-2.662c-10.086 0-13.225-4.187-13.225-19.312V68.59h13.225m166.045-37.83h-3.626c-.703-5.343-1.657-9.162-2.865-11.453-1.974-3.69-4.6-6.413-7.877-8.166-3.278-1.749-7.588-2.626-12.936-2.626h-18.233v98.906c0 5.913.477 10.168 1.427 12.775-5.799-1.392-14.74-2.355-20.514-2.534.505-2.474.757-5.89.757-10.241V8.515h-15.561c-6.046 0-10.343.45-12.886 1.34-3.31 1.208-6.142 3.53-8.497 6.97-2.355 3.433-3.755 8.083-4.2 13.936h-3.626L126.949.404h105.68l1.433 30.357"/><path fill="#5c6267" d="M260.71 30.856h1.03c.811 0 1.966-.218 2.622-.842.405-.406.686-1.093.686-1.748 0-.624-.25-1.311-.718-1.748-.499-.5-1.404-.811-2.59-.811h-1.03zm3.027-9.332c1.561 0 3.559.25 5.088 1.842 1.186 1.217 1.779 3.027 1.779 4.682 0 1.778-.624 3.34-1.654 4.338-.812.78-1.904 1.249-2.872 1.436l6.524 8.52h-6.71l-5.182-7.99v7.99h-5.4V21.524h8.427m14.934 10.83-7.523-10.83h6.462l3.933 5.68 3.776-5.68h6.555l-7.772 10.83v9.988h-5.431v-9.987m23.807 2.372-2.342-6.742-2.277 6.742zm1.435 4.12h-7.553l-1.404 3.495h-5.712l7.99-20.818h5.899l7.834 20.818h-5.774l-1.28-3.496m9.31 3.496V21.524h5.4l9.956 12.735V21.524h5.4v20.818h-5.4l-9.956-12.734v12.734h-5.4m-50.047 17.74v16.23h-5.4v-16.23h-4.432v-4.589h14.263v4.589h-4.431m12.07-4.589v12.33c0 .873.031 2.215 1.062 3.214.624.593 1.622.998 2.559.998.936 0 1.903-.373 2.497-.905 1.248-1.092 1.217-2.621 1.217-3.776v-11.86h5.4v11.954c0 2.184-.094 4.463-2.341 6.741-1.748 1.78-3.933 2.59-6.867 2.59-3.277 0-5.618-1.122-6.898-2.496-1.81-1.967-2.028-4.62-2.028-6.835V55.493h5.4m22.633 9.333h1.03c.812 0 1.966-.219 2.621-.843.406-.406.688-1.092.688-1.748 0-.624-.25-1.31-.719-1.748-.5-.5-1.404-.811-2.59-.811h-1.03zm3.028-9.333c1.56 0 3.558.25 5.087 1.842 1.186 1.217 1.779 3.027 1.779 4.682 0 1.779-.624 3.34-1.654 4.338-.811.78-1.904 1.249-2.872 1.436l6.524 8.52h-6.71l-5.182-7.99v7.991h-5.4V55.493h8.428m11.063 20.82v-20.82h5.4l9.956 12.735V55.493h5.4v20.82h-5.4l-9.956-12.736v12.735h-5.4m37.185-16.23h-6.43v3.464h6.087v4.588h-6.086v3.59h6.43v4.588h-11.83v-20.82h11.83v4.59m9.458 4.744h1.03c.811 0 1.966-.219 2.621-.843.406-.406.687-1.092.687-1.748 0-.624-.25-1.31-.718-1.748-.5-.5-1.405-.811-2.59-.811h-1.03zm3.027-9.333c1.56 0 3.558.25 5.087 1.842 1.187 1.217 1.78 3.027 1.78 4.682 0 1.779-.625 3.34-1.655 4.338-.81.78-1.904 1.249-2.871 1.436l6.523 8.52h-6.71l-5.182-7.99v7.991h-5.4V55.493h8.428m-104.959 48.545c1.155 1.093 2.903 2.122 4.776 2.122 1.092 0 1.748-.342 2.091-.717.312-.312.53-.78.53-1.31 0-.406-.155-.875-.592-1.25-.531-.467-1.342-.686-2.684-1.091l-1.405-.438c-.874-.28-2.153-.749-2.996-1.685-1.062-1.155-1.186-2.622-1.186-3.683 0-2.56.998-4.12 1.903-5.025 1.062-1.061 2.81-1.966 5.338-1.966 2.06 0 4.463.655 6.43 1.685l-2.154 4.214c-1.623-1.28-2.84-1.405-3.558-1.405-.53 0-1.25.125-1.78.624-.312.313-.53.656-.53 1.124 0 .375.062.655.281.936.156.187.53.562 1.81.937l1.655.5c1.31.404 2.684.874 3.776 2.059 1.061 1.124 1.342 2.279 1.342 3.714 0 1.904-.468 3.746-1.966 5.244-1.78 1.78-3.933 2.122-6.15 2.122-1.31 0-2.559-.125-4.088-.687-.343-.124-1.654-.624-3.152-1.654l2.31-4.37m21.956-5.025h1.81c.561 0 1.624-.062 2.28-.655.654-.562.686-1.404.686-1.904 0-.562-.063-1.31-.625-1.873-.624-.655-1.623-.748-2.31-.748h-1.841zm0 4.37v6.898h-5.4V89.463h8.615c1.81 0 3.683.344 5.274 1.873 1.624 1.56 1.936 3.308 1.936 5.055 0 1.655-.219 3.59-1.842 5.182-1.623 1.591-3.558 1.81-5.181 1.81h-3.402m25.09-9.332h-6.43v3.464h6.086v4.589H297.3v3.589h6.43v4.588H291.9V89.463h11.83v4.588m18.537 15.668c-2.153.78-3.34 1.03-4.681 1.03-3.62 0-6.336-1.435-8.053-3.12-2.029-2.03-3.152-4.87-3.152-7.586 0-2.965 1.28-5.773 3.152-7.678 1.842-1.872 4.62-3.246 7.866-3.246.999 0 2.621.156 4.868 1.061v6.462c-1.747-2.154-3.808-2.28-4.712-2.28-1.56 0-2.747.47-3.745 1.374-1.28 1.186-1.811 2.81-1.811 4.276 0 1.436.593 3.028 1.685 4.058.905.843 2.341 1.436 3.87 1.436.812 0 2.81-.094 4.713-2.185v6.398m9.481-20.256v20.818h-5.4V89.463h5.4m15.438 13.202-2.341-6.741-2.278 6.74zm1.436 4.12h-7.554l-1.404 3.496h-5.712l7.99-20.818h5.9l7.834 20.818h-5.774l-1.28-3.495m14.709-17.323v16.23h6.492v4.588h-11.891V89.463h5.399m15.4 4.588v16.23h-5.399v-16.23h-4.433v-4.588h14.265v4.588h-4.433m13.052 6.242-7.522-10.83h6.46l3.933 5.68 3.777-5.68h6.554l-7.771 10.83v9.988h-5.431v-9.988"/></svg>
