<?xml version="1.0" encoding="UTF-8"?>
<svg id="Layer_1" data-name="Layer 1" xmlns="http://www.w3.org/2000/svg" width="6.12in" height="1.87in" viewBox="0 0 440.9 134.7">
  <defs>
    <style>
      .cls-1 {
        fill: #1d428a;
      }

      .cls-1, .cls-2, .cls-3, .cls-4, .cls-5, .cls-6 {
        stroke-width: 0px;
      }

      .cls-2 {
        fill: #a7a8a9;
      }

      .cls-3 {
        fill: #00a0df;
      }

      .cls-4 {
        fill: #96daea;
      }

      .cls-5 {
        fill: #1a428a;
      }

      .cls-6 {
        fill: #00a1e4;
      }
    </style>
  </defs>
  <path class="cls-4" d="M348.52,68.74c11.66.62,27.25,1.83,32.84,3.4,1.42-2.8,2.65-5.61,3.66-8.37-6.06-2.69-22.82-4.75-36.53-5.78v10.77l.02-.02Z"/>
  <path class="cls-4" d="M389.33,74.91c1.78.79,3.42,1.63,4.93,2.5.21-.95.37-1.89.52-2.82.22-1.46.39-2.9.45-4.3-1.14-1.07-2.39-2.07-3.81-3.03-.49,2.5-1.2,5.07-2.09,7.65"/>
  <path class="cls-4" d="M399.78,81.45c1.2,1.08,2.26,2.21,3.18,3.38-.54-3.48-1.76-6.77-3.74-9.81.41,2.07.6,4.22.54,6.41"/>
  <path class="cls-4" d="M402.97,84.83c1.44,8.99-1.5,19.18-6.69,28.94h10.09c3.31-10.39,3.08-20.75-3.38-28.94"/>
  <path class="cls-3" d="M388.1,50.83c-5.33-5.33-22.97-9.4-39.59-11.38v10.67c15.03,1.4,32.34,4.21,38.32,7.93.64-2.47,1.07-4.86,1.27-7.2"/>
  <path class="cls-3" d="M392.1,62.08c1.12,1.08,2.11,2.22,2.97,3.42-.39-3.53-1.44-6.86-3.25-9.91.32,2.09.39,4.26.26,6.49"/>
  <path class="cls-3" d="M399.24,75.04h0c-.69-3.4-2.04-6.62-4.15-9.53.17,1.57.22,3.18.17,4.8-.06,1.42-.22,2.84-.45,4.3-.15.93-.32,1.87-.52,2.82-2.67,12-10.39,25.03-19.68,36.34h13.08c7.01-10.56,11.93-22.02,12.11-32.32.04-2.21-.13-4.36-.54-6.41"/>
  <path class="cls-6" d="M394.79,74.61c-.15.93-.32,1.87-.52,2.82.21-.95.37-1.89.52-2.82"/>
  <path class="cls-6" d="M399.78,81.45c.04-2.21-.13-4.36-.54-6.41h0c.41,2.07.6,4.22.54,6.41"/>
  <path class="cls-5" d="M348.52,21.11v10.52c17.65,2.49,35.22,7.66,39.65,14.34-.73-11.55-18.04-20.86-39.65-24.86"/>
  <path class="cls-5" d="M391.83,55.6c-.52-3.46-1.7-6.71-3.65-9.63.09,1.59.07,3.2-.07,4.86-.21,2.34-.64,4.75-1.27,7.2-.49,1.89-1.08,3.79-1.79,5.72-1.01,2.75-2.24,5.55-3.66,8.37-7.5,14.86-20.09,30.1-32.56,41.65h15.33c10.77-11.59,20.56-25.61,25.2-38.86.9-2.58,1.63-5.14,2.09-7.65.34-1.76.56-3.5.67-5.2.13-2.22.06-4.39-.26-6.49"/>
  <path class="cls-2" d="M150.87,104.89c0-2.71,0-3.22-.04-3.79-.04-.62-.21-.92-.6-1.01-.19-.06-.43-.07-.64-.07-.19,0-.28-.04-.28-.19,0-.11.15-.15.43-.15.67,0,1.79.06,2.32.06.45,0,1.5-.06,2.19-.06.22,0,.37.04.37.15,0,.15-.11.19-.28.19s-.32,0-.54.06c-.49.09-.62.39-.65,1.01-.04.56-.04,1.07-.04,3.79v3.14c0,1.74,0,3.14.07,3.91.06.49.19.8.71.88.24.04.64.07.92.07.21,0,.28.06.28.15,0,.13-.15.19-.34.19-1.18,0-2.3-.06-2.79-.06-.41,0-1.53.06-2.24.06-.22,0-.36-.06-.36-.19,0-.09.07-.15.28-.15.26,0,.49-.04.64-.07.36-.07.47-.37.52-.9.09-.75.09-2.17.09-3.89v-3.14l-.04.02Z"/>
  <path class="cls-2" d="M159.93,110.78c.04,1.4.26,1.85.62,1.98.3.11.64.13.93.13.19,0,.3.04.3.15,0,.15-.17.19-.41.19-1.16,0-1.87-.06-2.21-.06-.17,0-1.01.06-1.93.06-.22,0-.39,0-.39-.19,0-.11.11-.15.28-.15.22,0,.56,0,.8-.09.47-.15.54-.65.56-2.21l.17-10.58c0-.36.06-.62.22-.62.19,0,.36.22.65.56.21.22,2.93,3.14,5.53,5.74,1.22,1.22,3.63,3.78,3.93,4.07h.09l-.19-8.02c0-1.08-.19-1.42-.6-1.61-.26-.11-.69-.11-.95-.11-.21,0-.28-.06-.28-.17,0-.15.19-.17.47-.17.93,0,1.79.06,2.17.06.21,0,.88-.06,1.76-.06.22,0,.41,0,.41.17,0,.11-.11.17-.32.17-.19,0-.32,0-.54.06-.5.15-.64.52-.65,1.51l-.19,11.27c0,.39-.07.54-.22.54-.19,0-.41-.19-.6-.39-1.12-1.07-3.4-3.4-5.27-5.25-1.94-1.93-3.93-4.17-4.24-4.5h-.06l.21,7.5-.06.02Z"/>
  <path class="cls-2" d="M174.85,113c-.28-.13-.34-.22-.34-.6,0-.99.07-2.06.09-2.34,0-.26.07-.47.21-.47.17,0,.19.17.19.3,0,.22.07.6.17.92.39,1.33,1.44,1.79,2.56,1.79,1.61,0,2.39-1.08,2.39-2.04,0-.88-.26-1.7-1.76-2.86l-.82-.64c-1.96-1.53-2.64-2.79-2.64-4.22,0-1.96,1.64-3.36,4.13-3.36,1.16,0,1.91.19,2.37.3.17.04.24.09.24.22,0,.22-.07.75-.07,2.15,0,.39-.06.54-.19.54s-.19-.11-.19-.32c0-.17-.09-.71-.47-1.18-.26-.34-.79-.88-1.94-.88-1.33,0-2.13.77-2.13,1.83,0,.82.41,1.44,1.89,2.58l.5.37c2.17,1.63,2.93,2.86,2.93,4.56,0,1.03-.39,2.26-1.68,3.1-.9.58-1.89.73-2.84.73-1.03,0-1.83-.13-2.6-.47l-.02-.04Z"/>
  <path class="cls-2" d="M185.45,104.89c0-2.71,0-3.22-.04-3.79-.04-.62-.19-.9-.77-1.01-.15-.04-.45-.06-.69-.06-.19,0-.3-.04-.3-.17s.13-.17.39-.17c.95,0,2.07.06,2.6.06.43,0,1.55-.06,2.19-.06.26,0,.39.04.39.17s-.11.17-.28.17c-.19,0-.3,0-.52.06-.49.09-.62.39-.65,1.01-.04.56-.04,1.07-.04,3.79v2.5c0,2.6.52,3.68,1.4,4.39.8.65,1.63.73,2.22.73.79,0,1.76-.24,2.47-.97.99-.99,1.03-2.58,1.03-4.43v-2.22c0-2.71,0-3.22-.04-3.79-.04-.62-.19-.9-.77-1.01-.15-.04-.45-.06-.64-.06s-.3-.04-.3-.17.13-.17.37-.17c.92,0,2.04.06,2.06.06.21,0,1.35-.06,2.04-.06.24,0,.37.04.37.17s-.11.17-.32.17-.3,0-.52.06c-.49.09-.62.39-.65,1.01-.04.56-.04,1.07-.04,3.79v1.91c0,1.98-.19,4.09-1.7,5.38-1.27,1.08-2.56,1.29-3.72,1.29-.95,0-2.65-.06-3.96-1.23-.92-.82-1.59-2.15-1.59-4.73v-2.62Z"/>
  <path class="cls-2" d="M201.41,104.89c0-2.71,0-3.22-.04-3.79-.04-.62-.19-.9-.77-1.01-.15-.04-.45-.06-.69-.06-.21,0-.3-.04-.3-.17s.13-.17.39-.17c.95,0,2.07.06,2.45.06.6,0,1.96-.06,2.52-.06,1.12,0,2.32.11,3.29.77.5.34,1.22,1.25,1.22,2.45,0,1.33-.56,2.54-2.36,4,1.59,2,2.82,3.59,3.87,4.69.99,1.03,1.74,1.16,2,1.22.21.04.36.06.5.06s.22.06.22.15c0,.15-.13.19-.34.19h-1.7c-.99,0-1.44-.09-1.91-.34-.77-.41-1.44-1.25-2.45-2.62-.71-.99-1.53-2.21-1.78-2.47-.09-.11-.19-.13-.32-.13l-1.55-.04s-.15.04-.15.15v.24c0,1.66,0,3.07.09,3.81.06.52.17.92.69.99.26.04.65.07.88.07.15,0,.21.06.21.15,0,.13-.13.19-.36.19-1.03,0-2.36-.06-2.62-.06-.34,0-1.46.06-2.19.06-.22,0-.36-.06-.36-.19,0-.09.07-.15.28-.15.26,0,.49-.04.64-.07.36-.07.45-.47.52-.99.09-.75.09-2.17.09-3.79v-3.14h-.02ZM203.52,106.29c0,.21.04.26.17.32.37.13.92.19,1.36.19.71,0,.95-.07,1.27-.3.54-.39,1.05-1.22,1.05-2.67,0-2.54-1.68-3.27-2.73-3.27-.45,0-.77,0-.95.07-.13.04-.17.11-.17.24v5.42Z"/>
  <path class="cls-2" d="M215.6,108.55s-.13.04-.17.15l-.97,2.56c-.19.45-.26.88-.26,1.08,0,.32.17.56.71.56h.26c.22,0,.26.04.26.15,0,.15-.11.19-.3.19-.58,0-1.35-.06-1.89-.06-.19,0-1.18.06-2.11.06-.22,0-.34-.04-.34-.19,0-.11.07-.15.21-.15.17,0,.41,0,.56-.04.82-.11,1.16-.71,1.51-1.61l4.49-11.22c.21-.52.32-.71.5-.71.17,0,.26.17.45.56.43.99,3.29,8.26,4.43,10.99.67,1.61,1.2,1.85,1.57,1.94.26.06.54.07.75.07.15,0,.22,0,.22.15s-.17.19-.82.19-1.94,0-3.38-.04c-.32,0-.54,0-.54-.15,0-.11.07-.15.24-.17.13-.04.24-.21.17-.41l-1.42-3.78s-.09-.13-.17-.13h-3.98l.02-.02ZM219.25,107.66s.11-.06.09-.11l-1.61-4.41s-.04-.17-.09-.17-.09.09-.11.17l-1.64,4.39s0,.13.07.13c0,0,3.29,0,3.29,0Z"/>
  <path class="cls-2" d="M228.39,110.78c.04,1.4.26,1.85.62,1.98.3.11.64.13.93.13.19,0,.3.04.3.15,0,.15-.17.19-.41.19-1.16,0-1.87-.06-2.21-.06-.17,0-.99.06-1.93.06-.22,0-.39,0-.39-.19,0-.11.11-.15.28-.15.22,0,.56,0,.8-.09.47-.15.54-.65.56-2.21l.17-10.58c0-.36.06-.62.22-.62.19,0,.36.22.65.56.21.22,2.93,3.14,5.53,5.74,1.22,1.22,3.63,3.78,3.93,4.07h.09l-.19-8.02c0-1.08-.19-1.42-.62-1.61-.26-.11-.69-.11-.95-.11-.22,0-.28-.06-.28-.17,0-.15.21-.17.47-.17.93,0,1.79.06,2.17.06.21,0,.88-.06,1.76-.06.22,0,.41,0,.41.17,0,.11-.11.17-.32.17-.19,0-.32,0-.54.06-.5.15-.64.52-.65,1.51l-.19,11.27c0,.39-.07.54-.22.54-.21,0-.41-.19-.62-.39-1.12-1.07-3.4-3.4-5.27-5.25-1.94-1.93-3.93-4.17-4.24-4.5h-.06l.21,7.5-.02.02Z"/>
  <path class="cls-2" d="M244.37,111.51c-1.76-1.53-2.21-3.53-2.21-5.27,0-1.22.37-3.33,2.09-4.9,1.29-1.18,2.99-1.89,5.65-1.89,1.1,0,1.78.07,2.6.19.67.09,1.25.24,1.79.3.19,0,.26.11.26.21,0,.15-.06.36-.09.99-.04.6,0,1.57-.06,1.93,0,.26-.06.41-.21.41s-.19-.15-.19-.39c0-.56-.24-1.18-.69-1.64-.58-.62-1.98-1.1-3.63-1.1-1.55,0-2.58.39-3.36,1.1-1.31,1.2-1.64,2.9-1.64,4.62,0,4.24,3.23,6.36,5.63,6.36,1.59,0,2.56-.19,3.27-1.01.3-.34.54-.86.62-1.18.06-.28.09-.36.22-.36s.17.13.17.26c0,.21-.21,1.78-.39,2.37-.09.3-.17.39-.47.52-.71.28-2.07.41-3.22.41-2.45,0-4.5-.54-6.13-1.94l-.02.02Z"/>
  <path class="cls-2" d="M258.39,104.89c0-2.71,0-3.22-.04-3.79-.04-.62-.19-.9-.77-1.01-.15-.04-.45-.06-.69-.06-.19,0-.3-.04-.3-.17s.13-.17.39-.17h1.44c.47,0,.88.04,1.12.04h4.47c.34-.04.62-.07.77-.11.09,0,.19-.07.28-.07s.11.07.11.17c0,.13-.09.34-.15,1.16,0,.19-.06.97-.09,1.18,0,.09-.06.21-.19.21s-.17-.09-.17-.24c0-.13,0-.43-.11-.64-.13-.32-.3-.54-1.2-.64-.3-.04-2.19-.07-2.54-.07-.09,0-.13.06-.13.19v4.52c0,.13,0,.19.13.19.39,0,2.45,0,2.86-.04.43-.04.69-.09.86-.26.13-.15.19-.22.28-.22.07,0,.13.04.13.15s-.07.39-.15,1.31c0,.36-.07,1.07-.07,1.2,0,.15,0,.34-.17.34-.13,0-.17-.07-.17-.17,0-.17,0-.41-.07-.64-.09-.36-.34-.62-1.01-.69-.34-.04-2.11-.06-2.54-.06-.09,0-.11.07-.11.19v4.17c.04,1.23.32,1.5,2.15,1.5.47,0,1.22,0,1.68-.21s.67-.6.8-1.33c.04-.21.07-.26.21-.26.15,0,.15.15.15.32,0,.41-.15,1.63-.22,1.98-.13.47-.28.47-.97.47-1.35,0-2.32-.04-3.08-.06-.77-.04-1.33-.06-1.85-.06h-1.01c-.41,0-.88.04-1.23.04-.22,0-.36-.06-.36-.19,0-.09.07-.15.28-.15.26,0,.49-.04.64-.07.36-.07.45-.47.52-.99.09-.75.09-2.17.09-3.79v-3.14h.04Z"/>
  <path class="cls-2" d="M285.85,112.01c0,.49,0,.52-.22.64-1.16.6-2.92.8-4.3.8-4.37,0-8.24-2.07-8.24-6.99,0-2.86,1.48-4.86,3.1-5.83,1.72-1.03,3.31-1.16,4.8-1.16,1.23,0,2.8.21,3.16.28.37.07,1.01.19,1.4.21.21,0,.24.09.24.21,0,.21-.13.69-.13,2.93,0,.28-.06.37-.21.37-.13,0-.17-.09-.19-.22-.06-.41-.15-.99-.6-1.48-.54-.58-1.96-1.4-3.98-1.4-.99,0-2.28.07-3.53,1.1-1.01.84-1.64,2.17-1.64,4.37,0,3.83,2.45,6.71,6.21,6.71.47,0,1.08,0,1.51-.21.26-.13.34-.36.34-.65v-3.79c0-.6-.19-.9-.77-1.01-.15-.04-.45-.06-.69-.06-.17,0-.26-.04-.26-.15,0-.15.13-.17.37-.17.93,0,2.06.06,2.58.06s1.5-.06,2.09-.06c.22,0,.36.04.36.17,0,.11-.11.15-.22.15-.15,0-.26,0-.49.06-.49.09-.65.39-.67,1.01v4.11h-.02Z"/>
  <path class="cls-2" d="M290.82,104.89c0-2.71,0-3.22-.04-3.79-.04-.62-.19-.9-.77-1.01-.15-.04-.45-.06-.69-.06-.21,0-.3-.04-.3-.17s.13-.17.39-.17c.95,0,2.07.06,2.45.06.62,0,1.96-.06,2.52-.06,1.12,0,2.32.11,3.29.77.5.34,1.22,1.25,1.22,2.45,0,1.33-.56,2.54-2.36,4,1.59,2,2.82,3.59,3.87,4.69,1.01,1.03,1.74,1.16,2,1.22.21.04.36.06.5.06s.22.06.22.15c0,.15-.13.19-.34.19h-1.7c-1.01,0-1.44-.09-1.91-.34-.77-.41-1.44-1.25-2.45-2.62-.71-.99-1.53-2.21-1.78-2.47-.09-.11-.21-.13-.32-.13l-1.55-.04s-.15.04-.15.15v.24c0,1.66,0,3.07.09,3.81.06.52.17.92.69.99.26.04.65.07.88.07.15,0,.21.06.21.15,0,.13-.13.19-.36.19-1.03,0-2.36-.06-2.62-.06-.34,0-1.46.06-2.17.06-.22,0-.36-.06-.36-.19,0-.09.07-.15.28-.15.26,0,.49-.04.64-.07.36-.07.45-.47.52-.99.09-.75.09-2.17.09-3.79v-3.14h-.04ZM292.93,106.29c0,.21.04.26.17.32.37.13.92.19,1.36.19.71,0,.95-.07,1.27-.3.54-.39,1.05-1.22,1.05-2.67,0-2.54-1.68-3.27-2.73-3.27-.45,0-.77,0-.95.07-.13.04-.17.11-.17.24v5.42h0Z"/>
  <path class="cls-2" d="M302.26,106.46c0-3.05,2.02-6.99,7.38-6.99,4.45,0,7.22,2.58,7.22,6.67s-2.86,7.33-7.38,7.33c-5.12,0-7.2-3.83-7.2-6.99l-.02-.02ZM314.35,106.8c0-4-2.3-6.49-5.23-6.49-2.06,0-4.39,1.14-4.39,5.59,0,3.72,2.06,6.65,5.48,6.65,1.25,0,4.15-.62,4.15-5.76h0Z"/>
  <path class="cls-2" d="M319.98,104.89c0-2.71,0-3.22-.04-3.79-.04-.62-.19-.9-.77-1.01-.15-.04-.45-.06-.69-.06-.21,0-.3-.04-.3-.17s.13-.17.39-.17c.95,0,2.07.06,2.6.06.43,0,1.55-.06,2.19-.06.26,0,.39.04.39.17s-.11.17-.28.17c-.21,0-.3,0-.52.06-.49.09-.62.39-.65,1.01-.04.56-.04,1.07-.04,3.79v2.5c0,2.6.52,3.68,1.38,4.39.8.65,1.63.73,2.22.73.79,0,1.76-.24,2.47-.97.99-.99,1.03-2.58,1.03-4.43v-2.22c0-2.71,0-3.22-.04-3.79-.04-.62-.19-.9-.77-1.01-.15-.04-.45-.06-.64-.06s-.3-.04-.3-.17.13-.17.37-.17c.92,0,2.04.06,2.06.06.21,0,1.35-.06,2.04-.06.24,0,.37.04.37.17s-.11.17-.32.17c-.19,0-.3,0-.52.06-.49.09-.62.39-.65,1.01-.04.56-.04,1.07-.04,3.79v1.91c0,1.98-.19,4.09-1.7,5.38-1.27,1.08-2.56,1.29-3.72,1.29-.95,0-2.65-.06-3.96-1.23-.92-.82-1.59-2.15-1.59-4.73v-2.6l.02-.02Z"/>
  <path class="cls-2" d="M335.96,104.89c0-2.71,0-3.22-.04-3.79-.04-.62-.19-.9-.77-1.01-.15-.04-.45-.06-.69-.06-.21,0-.3-.04-.3-.17s.13-.17.39-.17c.95,0,2.07.06,2.58.06.73,0,1.78-.06,2.58-.06,2.22,0,3.03.75,3.33,1.01.39.37.9,1.18.9,2.13,0,2.54-1.85,4.32-4.39,4.32h-.37c-.09,0-.21-.04-.21-.17,0-.15.13-.21.5-.21,1.01,0,2.39-1.12,2.39-2.95,0-.6-.06-1.79-1.05-2.67-.64-.6-1.38-.69-1.79-.69-.26,0-.54,0-.69.07-.09.04-.15.15-.15.34v7.14c0,1.64,0,3.05.09,3.81.06.5.17.9.69.97.24.04.64.07.92.07.21,0,.28.06.28.15,0,.13-.15.19-.34.19-1.18,0-2.3-.06-2.77-.06-.41,0-1.53.06-2.24.06-.22,0-.36-.06-.36-.19,0-.09.07-.15.28-.15.26,0,.49-.04.64-.07.36-.07.45-.47.52-.99.09-.75.09-2.17.09-3.79v-3.14l-.04.02Z"/>
  <path class="cls-5" d="M22.69,86.87c-.79-.34-.93-.6-.93-1.68,0-2.73.21-5.68.24-6.49.06-.75.21-1.29.6-1.29.45,0,.49.45.49.84,0,.64.21,1.68.45,2.52,1.08,3.66,4,4.99,7.07,4.99,4.45,0,6.64-3.01,6.64-5.65,0-2.43-.75-4.69-4.84-7.91l-2.28-1.78c-5.44-4.26-7.33-7.72-7.33-11.72,0-5.44,4.54-9.35,11.42-9.35,3.22,0,5.29.49,6.58.84.45.09.69.24.69.6,0,.64-.21,2.07-.21,5.93,0,1.08-.15,1.48-.54,1.48-.34,0-.49-.3-.49-.9,0-.45-.24-1.98-1.29-3.27-.75-.93-2.17-2.43-5.38-2.43-3.66,0-5.89,2.13-5.89,5.1,0,2.28,1.14,4,5.23,7.12l1.38,1.05c5.98,4.5,8.11,7.91,8.11,12.62,0,2.88-1.08,6.28-4.65,8.6-2.47,1.59-5.23,2.04-7.87,2.04-2.88,0-5.1-.36-7.22-1.29l.02.02Z"/>
  <path class="cls-5" d="M59.74,52.85l-7.36.21c-2.88.09-4.06.36-4.8,1.44-.49.75-.75,1.33-.84,1.74-.09.39-.24.6-.54.6-.36,0-.45-.24-.45-.79,0-.79.93-5.29,1.05-5.68.15-.64.3-.93.6-.93.39,0,.9.49,2.13.6,1.44.15,3.31.24,4.95.24h19.59c1.59,0,2.67-.15,3.42-.24.75-.15,1.14-.24,1.33-.24.36,0,.39.3.39,1.05,0,1.05-.15,4.45-.15,5.74-.06.49-.15.79-.45.79-.39,0-.49-.24-.54-.99l-.06-.54c-.09-1.29-1.44-2.67-5.83-2.77l-6.22-.15v20.28c0,4.54,0,8.45.24,10.58.15,1.38.45,2.47,1.93,2.67.69.09,1.78.21,2.52.21.54,0,.79.15.79.39,0,.36-.39.49-.93.49-3.27,0-6.37-.15-7.76-.15-1.14,0-4.26.15-6.22.15-.64,0-.99-.15-.99-.49,0-.24.21-.39.79-.39.75,0,1.33-.09,1.78-.21.99-.21,1.29-1.29,1.44-2.71.24-2.07.24-5.98.24-10.54v-20.28l-.02-.06Z"/>
  <path class="cls-5" d="M87.24,64.42c0-7.51,0-8.9-.09-10.49-.09-1.68-.6-2.52-1.68-2.77-.54-.15-1.18-.21-1.78-.21-.49,0-.79-.09-.79-.49,0-.3.39-.39,1.18-.39,1.89,0,4.99.15,6.43.15,1.23,0,4.15-.15,6.04-.15.64,0,1.05.09,1.05.39,0,.39-.3.49-.79.49s-.9.06-1.48.15c-1.33.24-1.74,1.08-1.83,2.82-.09,1.59-.09,2.97-.09,10.49v8.71c0,4.8,0,8.71.21,10.82.15,1.33.49,2.22,1.98,2.43.69.09,1.78.21,2.52.21.54,0,.79.15.79.39,0,.36-.39.49-.93.49-3.27,0-6.37-.15-7.72-.15-1.14,0-4.26.15-6.22.15-.64,0-.99-.15-.99-.49,0-.24.21-.39.79-.39.75,0,1.33-.09,1.78-.21.99-.21,1.29-1.05,1.44-2.47.24-2.07.24-5.98.24-10.79v-8.71h-.04Z"/>
  <path class="cls-5" d="M114.75,73.11c0,6.34,0,9.74,1.05,10.64.84.75,2.13,1.08,5.98,1.08,2.62,0,4.54-.06,5.79-1.38.6-.64,1.2-2.04,1.29-2.97.06-.45.15-.75.54-.75.34,0,.39.24.39.84,0,.54-.36,4.26-.75,5.68-.3,1.08-.54,1.33-3.12,1.33-3.55,0-6.13-.09-8.36-.15-2.22-.09-4-.15-6.04-.15-.54,0-1.63,0-2.82.06-1.14,0-2.43.09-3.42.09-.64,0-.99-.15-.99-.49,0-.24.21-.39.79-.39.75,0,1.33-.09,1.78-.21.99-.21,1.23-1.29,1.44-2.71.24-2.07.24-5.98.24-10.54v-8.71c0-7.51,0-8.9-.09-10.49-.09-1.68-.49-2.47-2.13-2.82-.39-.09-.99-.15-1.63-.15-.54,0-.84-.09-.84-.45s.36-.45,1.08-.45c2.32,0,5.44.15,6.77.15,1.2,0,4.8-.15,6.73-.15.69,0,1.05.09,1.05.45s-.3.45-.9.45c-.54,0-1.33.06-1.93.15-1.33.24-1.74,1.08-1.83,2.82-.09,1.59-.09,2.97-.09,10.49v8.71l.02.02Z"/>
  <path class="cls-5" d="M143.63,73.11c0,6.34,0,9.74,1.05,10.64.84.75,2.13,1.08,5.98,1.08,2.62,0,4.54-.06,5.79-1.38.6-.64,1.2-2.04,1.29-2.97.06-.45.15-.75.54-.75.36,0,.39.24.39.84,0,.54-.36,4.26-.75,5.68-.3,1.08-.54,1.33-3.12,1.33-3.55,0-6.13-.09-8.36-.15-2.22-.09-4-.15-6.04-.15-.54,0-1.63,0-2.82.06-1.14,0-2.43.09-3.42.09-.64,0-.99-.15-.99-.49,0-.24.21-.39.79-.39.75,0,1.33-.09,1.78-.21.99-.21,1.23-1.29,1.44-2.71.24-2.07.24-5.98.24-10.54v-8.71c0-7.51,0-8.9-.09-10.49-.09-1.68-.49-2.47-2.13-2.82-.39-.09-.99-.15-1.63-.15-.54,0-.84-.09-.84-.45s.36-.45,1.08-.45c2.32,0,5.44.15,6.77.15,1.2,0,4.8-.15,6.73-.15.69,0,1.05.09,1.05.45s-.3.45-.9.45c-.54,0-1.33.06-1.93.15-1.33.24-1.74,1.08-1.83,2.82-.09,1.59-.09,2.97-.09,10.49v8.71l.02.02Z"/>
  <path class="cls-5" d="M159.95,54.92c-.6-1.83-1.14-3.01-1.83-3.51-.54-.36-1.53-.45-1.98-.45-.49,0-.79-.06-.79-.45,0-.34.39-.45,1.08-.45,2.58,0,5.29.15,5.74.15s2.62-.15,5.5-.15c.69,0,1.05.15,1.05.45,0,.39-.39.45-.9.45-.39,0-.9,0-1.23.21-.45.21-.54.54-.54,1.08,0,.64.49,2.32,1.08,4.54.84,3.27,5.44,18.24,6.34,21.03h.15l9.59-25.78c.49-1.38.84-1.78,1.23-1.78.54,0,.79.75,1.44,2.32l10.28,24.88h.15c.9-3.31,4.84-16.37,6.58-22.15.36-1.14.49-2.17.49-2.86,0-.79-.45-1.48-2.37-1.48-.49,0-.84-.15-.84-.45,0-.34.39-.45,1.14-.45,2.62,0,4.69.15,5.14.15.36,0,2.47-.15,4.11-.15.54,0,.9.09.9.39,0,.36-.24.49-.69.49-.49,0-1.18.06-1.74.24-1.18.45-1.74,2.43-2.77,5.23-2.28,6.22-7.48,21.96-9.89,29.38-.54,1.74-.79,2.32-1.44,2.32-.49,0-.79-.6-1.53-2.43l-10.28-24.79h-.09c-.93,2.52-7.51,20.04-9.65,24.58-.93,2.02-1.18,2.62-1.78,2.62-.49,0-.69-.54-1.14-1.83l-10.49-31.4-.02.04Z"/>
  <path class="cls-5" d="M217.25,74.55c-.24,0-.36.09-.45.39l-2.67,7.07c-.49,1.23-.75,2.43-.75,3.01,0,.9.45,1.53,1.98,1.53h.75c.6,0,.75.09.75.39,0,.39-.3.49-.84.49-1.59,0-3.7-.15-5.23-.15-.54,0-3.27.15-5.83.15-.64,0-.93-.09-.93-.49,0-.3.21-.39.6-.39.45,0,1.14-.06,1.53-.09,2.28-.3,3.22-1.98,4.21-4.45l12.41-31.07c.6-1.44.9-1.98,1.38-1.98.45,0,.75.45,1.23,1.59,1.18,2.73,9.1,22.9,12.26,30.41,1.87,4.45,3.31,5.14,4.36,5.38.75.15,1.48.21,2.07.21.39,0,.64.06.64.39,0,.39-.45.49-2.28.49s-5.38,0-9.35-.09c-.9-.06-1.48-.06-1.48-.39,0-.3.21-.39.69-.45.34-.09.69-.54.45-1.14l-3.96-10.49c-.09-.24-.24-.34-.49-.34h-11.03l-.02.02ZM227.34,72.08c.24,0,.3-.15.24-.3l-4.45-12.22c-.06-.21-.09-.45-.24-.45s-.24.24-.3.45l-4.54,12.17c-.06.21,0,.36.21.36h9.1-.02Z"/>
  <path class="cls-5" d="M252.22,52.85l-7.36.21c-2.88.09-4.06.36-4.8,1.44-.49.75-.75,1.33-.84,1.74-.09.39-.24.6-.54.6-.36,0-.45-.24-.45-.79,0-.79.93-5.29,1.05-5.68.15-.64.3-.93.6-.93.39,0,.9.49,2.13.6,1.44.15,3.31.24,4.95.24h19.59c1.59,0,2.67-.15,3.42-.24.75-.15,1.14-.24,1.33-.24.36,0,.39.3.39,1.05,0,1.05-.15,4.45-.15,5.74-.06.49-.15.79-.45.79-.39,0-.49-.24-.54-.99l-.06-.54c-.09-1.29-1.44-2.67-5.83-2.77l-6.22-.15v20.28c0,4.54,0,8.45.24,10.58.15,1.38.45,2.47,1.93,2.67.69.09,1.78.21,2.52.21.54,0,.79.15.79.39,0,.36-.39.49-.93.49-3.27,0-6.37-.15-7.76-.15-1.14,0-4.26.15-6.22.15-.64,0-.99-.15-.99-.49,0-.24.21-.39.79-.39.75,0,1.33-.09,1.78-.21.99-.21,1.29-1.29,1.44-2.71.24-2.07.24-5.98.24-10.54v-20.28l-.02-.06Z"/>
  <path class="cls-5" d="M279.72,64.42c0-7.51,0-8.9-.09-10.49-.09-1.68-.49-2.47-2.13-2.82-.39-.09-1.23-.15-1.93-.15-.54,0-.84-.09-.84-.45s.36-.45,1.08-.45c1.33,0,2.77.06,4,.06,1.29.06,2.43.09,3.12.09,1.59,0,11.42,0,12.37-.06.93-.09,1.74-.21,2.13-.3.24-.06.54-.21.79-.21s.3.21.3.45c0,.36-.24.93-.39,3.22-.06.49-.15,2.67-.24,3.27-.06.24-.15.54-.49.54s-.45-.24-.45-.69c0-.34-.06-1.18-.3-1.78-.34-.9-.84-1.48-3.31-1.78-.84-.09-6.04-.21-7.03-.21-.24,0-.36.15-.36.49v12.51c0,.36.06.54.36.54,1.08,0,6.77,0,7.91-.09,1.18-.09,1.93-.24,2.37-.75.36-.39.54-.64.79-.64.21,0,.36.09.36.39s-.21,1.08-.39,3.61c-.06.99-.21,2.97-.21,3.31,0,.39,0,.93-.45.93-.36,0-.45-.21-.45-.45-.06-.49-.06-1.14-.21-1.78-.24-.99-.93-1.74-2.77-1.93-.93-.09-5.83-.15-7.03-.15-.24,0-.3.21-.3.49v3.91c0,1.68-.06,6.22,0,7.66.09,3.42.9,4.15,5.93,4.15,1.29,0,3.36,0,4.65-.6s1.89-1.63,2.22-3.66c.09-.54.21-.75.54-.75.39,0,.39.39.39.9,0,1.14-.39,4.5-.64,5.5-.36,1.29-.79,1.29-2.67,1.29-3.7,0-6.43-.09-8.56-.15-2.13-.09-3.66-.15-5.14-.15-.54,0-1.63,0-2.82.06-1.14,0-2.43.09-3.42.09-.64,0-.99-.15-.99-.49,0-.24.21-.39.79-.39.75,0,1.33-.09,1.78-.21.99-.21,1.23-1.29,1.44-2.71.24-2.07.24-5.98.24-10.54v-8.71l.04.06Z"/>
  <path class="cls-5" d="M309.92,64.42c0-7.51,0-8.9-.09-10.49-.09-1.68-.49-2.47-2.13-2.82-.39-.09-1.23-.15-1.93-.15-.54,0-.84-.09-.84-.45s.36-.45,1.08-.45c2.62,0,5.74.15,6.77.15,1.68,0,5.44-.15,6.97-.15,3.12,0,6.43.3,9.1,2.13,1.38.93,3.36,3.46,3.36,6.77,0,3.66-1.53,7.03-6.52,11.08,4.41,5.53,7.81,9.94,10.73,13.01,2.77,2.86,4.8,3.22,5.53,3.36.54.09.99.15,1.38.15s.6.15.6.39c0,.39-.36.49-.93.49h-4.69c-2.77,0-4-.24-5.29-.93-2.13-1.14-4-3.46-6.77-7.27-1.98-2.73-4.26-6.08-4.9-6.82-.24-.3-.54-.36-.9-.36l-4.3-.09c-.24,0-.39.09-.39.39v.69c0,4.6,0,8.51.24,10.58.15,1.44.45,2.52,1.93,2.71.75.09,1.83.21,2.43.21.39,0,.6.15.6.39,0,.36-.34.49-.99.49-2.86,0-6.52-.15-7.27-.15-.93,0-4.06.15-6.04.15-.64,0-.99-.15-.99-.49,0-.24.21-.39.79-.39.75,0,1.33-.09,1.78-.21.99-.21,1.23-1.29,1.44-2.71.24-2.07.24-5.98.24-10.54v-8.71.04ZM315.76,68.33c0,.54.09.75.45.9,1.05.34,2.52.49,3.76.49,1.98,0,2.62-.21,3.51-.84,1.48-1.08,2.92-3.36,2.92-7.42,0-7.03-4.65-9.05-7.57-9.05-1.23,0-2.13.06-2.62.21-.34.09-.45.3-.45.69v15.03Z"/>
  <path class="cls-1" d="M410.13,111.07c0-1.62,1.24-2.8,2.92-2.8s2.92,1.18,2.92,2.8-1.24,2.76-2.92,2.76-2.92-1.21-2.92-2.76ZM415.44,111.04c0-1.37-1.02-2.29-2.38-2.29s-2.38.92-2.38,2.29,1.02,2.32,2.42,2.32,2.35-.98,2.35-2.32ZM411.97,110.6c0-.48-.03-.7-.03-.86,0-.19-.1-.22-.35-.22-.03,0-.09-.03-.09-.06,0-.06.06-.09.16-.09h.16c.06,0,.32.03.41.03.29,0,.41-.03.67-.03.54,0,1.33.09,1.33.86,0,.32-.09.57-.57.95l.54.67c.41.51.54.54.6.54s.09.03.09.06c0,.06-.03.09-.22.09-.41,0-.64.03-1.11-.6l-.44-.6h-.57v.29c0,.64.03.67.06.7.06.03.22.06.32.06.06,0,.09,0,.09.06s-.06.09-.13.09h-.13c-.06,0-.35-.03-.51-.03-.1,0-.41.03-.48.03h-.16c-.06,0-.13,0-.13-.06s.06-.09.13-.09q.28,0,.32-.19c0-.16.03-.38.03-.89v-.7ZM412.55,110.98c.1.06.29.09.48.09.1,0,.22-.03.32-.09.16-.09.28-.25.28-.57,0-.45-.28-.76-.79-.76-.03,0-.22,0-.29.06v1.27Z"/>
</svg>